<?xml version="1.0" encoding="UTF-8"?>
<svg id="Livello_1" data-name="Livello 1" xmlns="http://www.w3.org/2000/svg" viewBox="0 0 841.89 841.89">
  <defs>
    <style>
      .cls-1 {
        fill: #1b8741;
      }
    </style>
  </defs>
  <path class="cls-1" d="M176.12,415.37c-1.71-.7-.53-6.09-.04-8.12,5.51-23.01,12.08-44.4,18.44-67.17,3.45-12.35,3.99-24.67,4.08-37.19.02-2.72-1.41-3.55-3.99-2.39-9.31,5.35-12.44,4.82-14.71,3.43-4.01-2.45-3.72-7.51.75-9.6,4.3-2.01,19.74-6.83,20.26-15.6.42-6.92-.73-25.39,7.36-25.42,6.12-.03,5.33,17.88,4.95,23.08-.59,8.01,21.07,20.37,22.91,21.83,2.06,1.62,2.57,4.46,1.68,6.4-3.08,4.65-9.09,1.67-15.92-1.88-4.59-2.38-6.04-2.26-7.41,2.73-.57,2.1-2.85,19.15,3.11,48.08,3.81,19.09,8.27,38.06,11.8,57.2.23,1.23,0,3.77-1.76,4.14-1.84.04-2.29-1.93-2.58-3.11-1.55-6.48-13.69-56.74-14.83-58.88-1.9-3.88-5.28-3.44-8.03-.37-4.36,4.49-15.85,41.9-20.47,55.2-1.18,3.41-2.3,8.43-5.61,7.66Z"/>
  <path class="cls-1" d="M203.68,562.33c-.82-11.96-1.55-42.97-4.79-49.83-1.55-3.29-3.26-3.85-6.13-1.61-2.31,1.8-9.71,9.73-12.81,6.59-2.08-1.92,0-4.02,1.18-5.54,3.9-5.07,7.95-10.04,12.14-14.88,4.03-4.67,5.91-9.96,5.8-16.1-.04-2.06.23-4.24.88-6.19,1.26-3.8,4.97-4.51,7.31-1.27,1.37,1.9,2.42,4.45,2.53,6.76.33,6.89,3.23,12.12,8.42,16.54,3.82,3.25,11.91,10.6,13.13,14.58.32,1.05.85,2.4-.36,3.43-2.86,2.43-8.54-2.5-11.25-4.96-3.58-3.24-8.63-3.88-6.37,4.05,2.47,13.19,4.72,26.45,7.99,39.45,1.74,6.92,11.23,27.35,12.79,36.03.27,1.02.65,2.49-.75,3.45-1.42.89-2.76-.55-3.31-1.37-2.01-3.02-7.55-14.33-8.92-16.59-2.02-3.34-5.17-3.34-7.46-.18-2.26,3.12-2.93,14.37-3.26,18.11,0,.09,0,.19-.02.27-.51,2.05-.31,4.94-3.29,4.9-3.09-.04-3.22-2.98-3.27-5.15-.18-9.05-.13-18.11-.18-30.49Z"/>
  <path class="cls-1" d="M234.65,185.22c-2.81.41-3.83-2.3-4.4-3.4-6.68-12.87-16.01-58.45-22.78-56.53-5.33.22-17.65,44.64-20.18,52.07-.55,1.63-.79,4.12-3.11,3.7-1.85-.54-1.36-3.17-1.15-4.76,2.79-20.36,23.71-71.25,17.75-78.23-3.99-4.68-15.22,2.76-20.22,5.01-1.27.58-5.16,3.15-5.18-.94,0-1.58,2.59-2.91,4.14-3.99,5.55-3.87,25.67-13.3,23.68-21.96-1.11-3.16-2.83-15.24,5.99-14.63,8.68.61,3.39,12.21,2.95,15.53-.32,2.4-.23,4.47,2,6.08,6.75,4.87,22.33,16.45,23.19,17.48.45.54,1.08,1.16.48,2.19-.64,1.11-1.56,1.23-2.23,1.08-2.12-.45-17.65-11.43-20.48-8.56-4.38,3.87,19.14,82.01,20,85.09.38,1.36,1.26,4.27-.46,4.75Z"/>
  <path class="cls-1" d="M196.28,739.87c.39-13.45.19-26.91.17-40.36,0-2.37-1.03-3.85-3.8-4.02-3.4-.22-4.57-2.67-2.42-5.3,2.94-3.59,8.18-9.41,7.21-16.86-.45-3.47-1.65-13.8,4.43-14.22,5.48-.38,6.16,9.73,6.54,13.15.51,4.57,2.03,8.49,5.37,11.68,2.31,2.22,8.51,9.16,9.39,10.3,2.71,3.51.84,8.21-8.89,2.91-3.75-2.04-5.38-1.51-5.53,2.75-.23,6.48.23,12.98.21,19.46-.09,37.93,9.54,57.28,2.57,59.4-3.16.96-6.91-8.17-9.99-7.2-2.13.67-2.57,7.53-4.75,7.54-1.08,0-1.75-1.05-1.95-2.51-.45-3.26,1.17-27.75,1.43-36.7Z"/>
  <path class="cls-1" d="M84.16,521.85c0-4.32-2.04-14.38-10.71-8.29-2.02,1.42-8.32,7.07-9.9,7.67-2,.76-3.36-.35-3.02-2.45.71-4.39,9.8-13.63,14.28-18.04,4.16-4.1,5.34-8.39,3.99-14.13-1.02-4.35-2.8-20.84,5.86-21.62,9.56-.87,9.23,19.85,8.84,22.64-.48,3.48.44,6.34,3.44,8.04,10.12,5.71,19.35,15.13,22.76,22.85.44.99,1.12,2.33.08,3.53-1.19,1.37-2.69.32-3.54-.25-3.25-2.18-12.21-13.57-16.54-11.11-2.8,1.59-2.15,11.92-1.63,15.53,2.32,16.28,4.66,32.56,7.27,48.8.98,6.12,4.9,18.71,4.39,26.66-.06.93-.36,2.61-1.39,2.76-1.08.16-1.82-1.42-2.27-2.35-.94-1.97-.93-9.53-5.51-10.15-7.43-1.01-8.99,5.69-9.44,6.88-.27.71-.54,1.84-1.32,1.93s-1.28-.93-1.69-1.54c-2.82-4.21-3.39-9.02-3.44-13.91-.1-9.8-.52-52.1-.52-63.44Z"/>
  <path class="cls-1" d="M98.06,399.79c-.12,1.43-.12,4.2-1.96,4.38-2.08,0-2.51-2.74-2.7-4.24-.68-5.44-.65-10.97-1.34-16.41-.88-6.96-2.27-26.35-6.96-25.93-3.57.2-6.44,18.98-7.85,25.96-.8,3.94-1.67,7.87-2.74,11.74-.26.95-.86,2.64-2.17,2.45-1.59-.42-1.53-1.94-1.55-2.85-.29-15.29,10.5-51.12,8.92-71.49-.28-3.65-2.87-4.79-6.21-3.2-2.78,1.32-13.02,8.09-15.71,9.44-1.78.9-4.08,1.56-5.51-.39-1.55-2.11-.18-4.07,1.41-5.56,2.34-2.18,27.84-17.69,28.76-30.43.39-5.48-4.06-28.67,6.56-28.71,12.37-.05,7.12,23.58,6.93,27.68-2.12,15.48,6.49,8.16,30.75,39.92,1.53,1.48,2.86,4.98,2.43,6.74-1.04,3.24-3.96,2.89-6.42,1.24-2.7-1.82-15.11-14.3-19.12-18.04-3.11-2.91-5.64-2.29-7.05,1.75-3.6,6.99,2.35,66.12,1.51,75.94Z"/>
  <path class="cls-1" d="M76.93,89.45c-1.12-4.27-3.13-4.7-6.48-1.85-2.37,2.02-9.29,7.76-10.51,8.35-2.16,1.04-4.49,1.47-6.36-.48-1.87-1.95-2.56-4.65-1.05-6.82,1.55-2.23,14.23-11.25,18.26-14.09,3.47-2.44,4.54-5.73,3.45-9.86-.83-3.16-.82-6.25.86-9.32.69-1.26.25-3.08.75-4.5.41-1.18,1.43-2.14,2.18-3.19.78,1.02,1.9,1.94,2.26,3.1.56,1.82,1.21,3.3,2.55,4.82,1.29,1.46,2.12,4.07,1.87,6.02-.77,6.06,2.61,9.09,7.23,11.65,5.74,3.19,19.01,11.54,19.94,12.36,1.3,1.14,1.99,2.55,1.68,3.7-.37,1.37-3.02.41-4.22-.1-3.02-1.28-14.61-9.81-17.34-6.53-3.9,4.7,24.43,76.98,36.22,98.04.17.31,1.87,3.48.07,5.07-2.49,2.2-5-1.71-6.01-3.39-10.02-16.71-27.91-58.38-33.54-56.53-5.26,1.73-7.72,69.99-7.89,71.22-.2,1.5-1.6,2.11-3.22,1.99s-2.76-1.48-2.95-2.34c-.48-2.21,3.24-103.54,2.25-107.31Z"/>
  <path class="cls-1" d="M85.85,781.06c-1.58-.34-1.14-3.08-.84-4.91,4.47-30.21-1.69-81.74-3.3-86.38-1.29-3.71-3.03-4.02-6.49-2.25-4.06,2.08-8.07,4.27-12.22,6.15-1.66.75-4.1,2.14-5.17-.31-.4-.91,1.32-3.38,2.65-4.28,5.42-3.66,11.11-6.92,16.63-10.44,6.01-3.84,5.96-3.9,4.63-10.8-.26-1.36-1.93-10.16,4.77-10.73,7.62-.65,6.57,10.55,6.15,12.87-.71,3.9-.22,5.22,3.53,6.71,3.03,1.2,23.61,9.74,24.5,10.15.95.44,2.85,1.21,2.26,3.21-.66,2.11-3.2.85-3.95.58-1.94-.7-13.01-4.95-17.19-6.14-2.98-.85-3.99.15-4.63,3.23-1.74,8.38,11.49,74.04,16.98,88.49.29.77,0,1.83-1.09,2.34-1.3.36-2.03-.55-2.37-1-.68-.89-8.32-17.85-13.08-17.79-4.54.06-7.52,13.19-8.81,17.56-.67,2.28-1.46,4.03-2.97,3.75Z"/>
  <path class="cls-1" d="M735.66,81.69c3.71-2.2,11.49-13.01,8.85-17.67-3.82-6.76-4.88-20.74,3.1-20.76,11.69-.02,10.44,16.44,10.47,20.81.02,3.57,4.59,7.35,13.94,9.71,6.98,1.77,11.36,7.56,10.27,17.26-1.28,11.46-14.81,34.26-14.64,37.27.73,13.23,3.99,26.19,6.09,39.27,1.11,6.94,5.94,26.8,1.94,28.27-3,1.1-4.27-.63-5.52-1.91-1.49-1.52-4.51-10.8-5.8-12.84-1.95-3.09-4.98-3.07-6.72.11-1.24,2.26-2.48,22.32-7.56,22.34-3.04.01-2.64-7.35-2.45-9.89,1.56-20.87,2.83-91.54-4.03-100.19-3.31-4.17-11.86-3.22-10.8,23.69.42,3.47-.42,9.15-3.9,8.55-2.22-.38-2.81-4.53-3.1-6.75-.49-3.81-5.47-28.2,9.86-37.27ZM773.42,98.84c-.01-3,.4-16.86-8.43-15.65-5.45.74-.27,28.29.56,33.08,1.83-6.45,2.65-13.08,7.87-17.42Z"/>
  <path class="cls-1" d="M785.42,707.18c-2.59-.3-3.44.41-4.94-1.15-2.78-2.89-13.43-13.31-19.27-7.9-2.46,2.28-.62,17.95.69,24.39,3.56,17.51,9.01,34.45,15.91,50.94.25.59,1.96,4.79.66,5.71-1.72,1.22-3.24-.48-4.05-1.41-2.08-2.38-8.78-13.17-11.06-15.1-3.51-2.96-8.2-.91-8.41,3.69-.14,2.98.41,7.75-3.26,7.91-3.54.15-4.01-4.74-3.99-7.64.1-16.2,1.26-32.37,1.68-48.56.75-14.08-4.28-20.05-9.55-14.75-4.5,4.53-7.76,10.17-11.6,15.28-1.6,2.13-2.62,5.05-6.26,4.29-.32-.07-1.49,3.47-3.3,2.79-2.82-1.06-1.95-4.65-.54-7.04,5.71-9.68,11.49-19.34,17.78-28.63,3.54-5.22,3.93-9.95.99-15.32-1.09-1.99-6.23-13.86,3.52-15.83,11.72-2.36,9.96,11.27,9.86,14.44-.22,7.21,4.89,10.51,9.7,10.84,7.71.53,13.18,4.34,18.92,9.26,4.14,3.56,13.92,13.96,10.75,15.84-1.69.99-3.53-1.95-4.24-2.03Z"/>
  <path class="cls-1" d="M763.22,556.15c1.15,9.22,3.58,18.28,5.18,27.45.73,4.21.91,8.53,1.13,12.81.04.85-.39,2.5-1.38,2.62s-1.82-1.42-2.05-2.31c-1.25-4.86-3.72-16.48-4.04-17.33-1.5-3.85-6.09-4.77-8.51-1.44-1.45,1.99-4.91,13.05-6.37,15.85-.82,1.57-2.57,2.79-4.13,3.8-.72.47-2.44.88-3.04.04-.54-.74.34-1.91.87-2.59,4.21-5.41,6.17-11.59,6.38-18.34.23-7.22.39-14.44.41-21.67.04-14,.62-38.82-.17-43.65-.68-4.2-2.56-5.64-6.63-4.32-2.5.81-10.13,7.07-12.21,3.85-3.1-4.8,13.42-14.34,16.94-18.26,2.61-2.91,3.51-6.74,3.55-10.72.02-2.28-2.05-11.54,4.89-11.57,7.1.26,5.1,11.29,5.45,14.83.42,4.23,2.42,7.45,6.32,9.26,2.98,1.38,13.99,4.26,12.97,7.82-.8,2.8-7.29.77-9.53.38-4.33-.76-5.95-.23-6.81,4.08-1.14,5.76-.51,38.88.79,49.4Z"/>
  <path class="cls-1" d="M743.4,359.18c-.16,1.39-2.18,3.36-2.22,4.75-.2,7.54,1.83,14.45,3.65,21.83,1.6,6.5,1.63,13.11.89,19.73-.1.94-.49,1.9-.98,2.72-.71,1.19-3.79,1.75-4.3.47-.59-1.48-.99-3.07-1.19-4.65-.55-4.51-.84-9.06-1.44-13.57-.55-4.13-1.48-8.21-2.07-12.33-.58-4.05-.94-8.14-1.39-12.21-.11-1.05-.15-2.1-.23-3.15-.47-5.67,5.02-12.03,6.53-17.47,2.42-8.73,3.73-17.64,3.67-26.72-.03-4.06-.85-7.97-2.2-11.8-1.29-3.68-3.84-5.71-7.67-6.24-1.53-.21-3.06-.43-4.56-.76-5.22-1.14-7.99-4.29-8.22-9.71-.17-4.05-.01-8.12.05-12.18.04-2.33.13-4.66.29-6.98.05-.64.33-1.33.7-1.86,1.27-1.85,3.33-1.87,4.7-.09,1.35,1.74,1.77,3.8,1.8,5.93.05,3.35,0,6.7.08,10.05.03,1.11.32,2.23.6,3.31.8,3.05,2.95,4.69,5.96,5.05,2.22.27,4.49.31,6.72.24,4.61-.14,8.38-4.6,8.84-9.09.46-4.4-.43-8.43-3.04-12.05-.87-1.2-.53-2.49.87-3,.8-.29,1.68-.39,2.53-.43,2.44-.12,3.88-1.35,4.06-3.78.4-5.33.65-10.66,1.1-15.98.22-2.57.71-5.13,1.15-7.68.07-.43.45-1.01.83-1.14.74-.26,1.47-.02,1.94.73,1.1,1.73,1.55,3.65,1.67,5.67.3,4.73-.41,9.39-1.21,14.02-.56,3.26-.2,6.27,1.51,9.11.45.74.92,1.08,1.84.8.47-.14,1.33-.06,1.52.23.29.46.35,1.25.16,1.78-.29.79-.83,1.51-1.35,2.2-.56.75-1.22,1.43-1.84,2.13-3.99,4.48-4.79,9.74-3.59,15.4.66,3.12,2.67,5.47,5.13,7.35,3.11,2.37,6.41,4.49,9.52,6.86,4.43,3.38,8.43,7.17,10.72,12.41.28.64.46,1.36.51,2.05.07,1.02-.41,1.44-1.38,1.14-.85-.26-1.74-.61-2.42-1.16-3.01-2.43-5.96-4.94-8.93-7.42-1.3-1.09-2.53-2.26-3.9-3.25-3.41-2.47-6.51-1.69-8.51,2.01-1.62,3.02-2.1,6.35-2.41,9.67-.53,5.8-1.02,11.62-1.2,17.44-.11,3.48.49,6.97.61,10.46.14,3.95.23,7.9.13,11.85-.15,5.94-.41,11.88-.75,17.82-.26,4.5-.76,8.99-1.1,13.49-.37,4.84-.63,9.69-1.04,14.52-.45,5.35-.98,10.7-1.56,16.04-.12,1.1-.55,2.19-.95,3.23-.4,1.01-1.56,1.64-2.42,1.44-1.13-.27-1.28-1.2-1.26-2.12.14-6.7.18-13.4.52-20.08.36-7.24.23-14.42-.86-21.6-.9-5.92-1.17-11.9-.97-17.9.07-2.18-.04-4.36-.11-6.54-.01-.42-2.95-.54-3.05-.96-.17,0-.35-.02-.52-.03Z"/>
  <path class="cls-1" d="M506.69,480.29c-1.01-6.19-.21-10.82,2.27-15.25,1.05-1.87,2.02-7.27,3.38-8.19,1.38-.93,1.51.18,4.3.09,2.65-.09,9.25,14.18,5.84,25.04-1.7,5.4,1.18,9.2,5.58,11.99,6.87,4.36,31.58,15.7,28.8,23.56-.63,1.78-4.04,2.8-7.43,1.46-3.9-1.54-12.37-7-16.82-8.58-4.92-1.75-9.75-1.13-11.35,4.33-1.84,6.25-.37,14.08,1,18.51,4.04,13.07,16.19,41.56,20.09,50.92,1.49,3.57,9.86,9.15,7.32,13.58-4.97,8.67-19.37-20.78-23.82-30.49-2.61-5.69-9.26-20.33-13.33-19.67-3.66.59-5.26,18.41-6.34,25.99-1.72,12.12-2.77,27.45-4.5,36.47-.16.84-.38,2.91-1.76,2.91-1.1,0-1.43-1.05-1.88-3.02-1.27-5.59-6.96-52.92,6.08-80.88,4.45-9.54,2.97-16.65-3.84-18.52-2.72-.75-14.28-2.8-15.32-6.63-1.45-5.37-3.49-10.77-8.17-13.73-6.05-3.82-9.64-14.73-1.67-17.58,8.02-2.87,9.81,7.06,10.62,13.34.55,4.23,4.95,12.22,12.96,11.09,3.42-.48,5.89-2.26,6.52-5.73.73-4.02,1.08-8.11,1.45-11.01Z"/>
  <path class="cls-1" d="M510.25,714.99c-2.08-4.08-6.69-5.62-10.08-2.57-1.31,1.18-2.68,2.79-3.04,4.42-1.43,6.48-15.91,17.63-19.44,10.9-2.36-4.5,9.39-11.62,10.32-15.4,2.66-10.75,9.88-17.65,18.8-23.25,4.75-2.98,5.3-4.19,2.8-9.13-2.53-4.97-3.39-9.96-1.95-15.37.3-1.12.18-2.37.17-3.55-.02-2.23.78-3.88,2.97-4.74,2.25-.88,4.28-.4,5.72,1.36,3.15,3.86,7.61,9.7,7.26,21.91-.07,2.26,1.33,3.78,3.29,4.67,35.06,9.82,21.22,22.65,16.41,28.85-1.72,2.22-3.91,4.11-6.01,6.01-4.77,4.33-7.03,9.6-6.83,16.08.4,13.24,6.89,42.71,6.98,44.61.04.79-.39,2.2-1.29,2.44-.83.22-1.84-.72-2.13-1.36-1.62-3.57-2.82-12.59-8-14.62-2.71-1.06-4.87-.37-5.52,2.95-.4,2.06-.77,9.4-4.35,9.26-4.01-.17-4.05-5.88-4.07-7.42-.09-7.87.85-50.49-2-56.08ZM530.88,709.27c1.75,1.01,11.13-1.13,6.38-8.23-1.31-1.95-3.52-3.56-5.49-2.47-2.38,1.33-3.64,9.11-.89,10.7Z"/>
  <path class="cls-1" d="M524.89,330.1c.03,15.66,4.35,30.28,9.51,44.88,3.09,8.73,4.53,18.03,6.69,27.08.12.52.79,2.64-1.04,3.57-.87.44-1.7-.34-2.06-.9-1.42-2.23-14.14-36.51-15.83-40.45-.51-1.19-1.76-2.41-2.94-2.83-.57-.2-2.15,1.24-2.66,2.25-3.63,7.17-16.2,34.16-19.14,40.35-.46.96-1.16,2.68-2.6,2.3-1.73-.63-1.54-2.35-1.33-3.32.86-4.09,11.38-33.07,15.08-43.67,4.16-7.25.89-35.2-.22-38.61-1.27-3.91-3.64-4.98-7.09-2.63-3.38,2.3-17.82,15.95-19.29,16.53-1.29.51-2.44,1.11-4.26.09-1.55-.87-1.97-2.85-1.77-4.17.18-5.25,23.35-26.09,30.75-28.21,2.54-.96,3.7-2.54,3.83-5.02.16-3.01-.21-21.12-.21-27.16,0-2.06.06-7.49,5.85-7.85,5.79-.02,6.15,5.04,6.38,8.24.64,8.85,1.25,17.71,1.72,26.57.13,2.39.69,3.86,3.36,4.42,3.72.78,6.64,3.17,8.85,6.15,4.67,6.32,15.14,21.88,15.25,23.26.1,1.2-.36,2.93-1.22,3.58-.83.64-2.89.76-3.7.15-2.67-2.01-12.36-17.4-16.41-19.85-3.77-2.56-5.78.65-5.49,15.25Z"/>
  <path class="cls-1" d="M509.13,147.57c-.39,1.87-.81,3.23-.93,4.62-1.77,19.56-1.75,39.16-1.03,58.77.01.33.06.67.02.99-.16,1.36.76,3.36-1.04,3.83-1.78.47-3.9.4-5.69-.1-1.74-.49-2.25-2.53-1.55-3.99,2.45-5.1.89-10.1-.03-15.1-1.05-5.67-1.52-11.35-1.38-17.12.15-6.27-.09-12.55.01-18.82.17-10.29.32-20.59.8-30.87.18-3.85,1.45-7.63,1.91-11.49.83-6.92.39-13.86-.8-20.7-.76-4.35-3.45-7.31-7.87-8.51-2.03-.55-4.06-1.13-6.05-1.82-5.52-1.9-7.67-5.48-6.52-11.14.82-4.06,2.1-8.03,2.82-12.11.5-2.77.38-5.64.58-8.46.04-.58.23-1.16.43-1.71.53-1.42,1.3-2.82,3.03-2.6,1.7.22,2.49,1.8,2.35,3.22-.29,3.06-.98,6.07-1.54,9.1-.58,3.09-1.45,6.15-1.75,9.26-.28,2.97,1.15,5.29,4.2,6.13,2.26.63,4.58,1.32,6.9,1.44,3.73.19,4.69-.95,5.14-4.65.59-4.9,1-9.85,2.01-14.67,1.61-7.66,3.54-15.26,5.6-22.82.6-2.21,1.86-4.36,3.24-6.22,1.31-1.75,3.2-1.7,4.89-.28,2.17,1.82,3.63,4.06,3.21,7.05-.38,2.74-.83,5.47-1.36,8.18-.49,2.5.43,4.23,2.6,5.41.58.32,1.15.65,1.69,1.02,2.09,1.44,2.96,3.37,1.83,5.65-1.87,3.76-4.17,7.3-6.24,10.96-.74,1.31-1.6,2.63-1.95,4.06-.93,3.84.85,6.78,4.76,8.72,3.53,1.75,7.23,3.32,10.42,5.59,5.22,3.71,9.14,8.65,11.8,14.58.98,2.2,2.63,4.08,3.81,6.21.68,1.23,1.24,2.6,1.46,3.97.31,2-.96,3.21-2.74,3.82-1.75.59-3.31-.1-4.37-1.83-2.72-4.45-5.27-9-8.2-13.3-1.28-1.89-3.11-3.58-5.03-4.84-2.27-1.5-4.31-.72-5.57,1.71-2.46,4.73-3.59,9.71-2.94,15.09.72,5.89,1.33,11.8,1.87,17.71.74,8,.33,15.96-1.55,23.79-1.2,5-1.04,9.97.22,14.89,1.48,5.75,1.17,11.49.48,17.29-.62,5.24-1.04,10.5-1.6,15.75-.18,1.68-.59,3.39-2.56,3.79-1.38.28-2.93-1.45-3.36-3.61-.22-1.09-.31-2.23-.27-3.34.16-4.38-.1-8.69-1.32-12.93-.94-3.27-1.16-6.61-.27-9.97.25-.95.36-1.96.34-2.94-.07-6.12-.18-12.24-.3-18.36-.08-3.96-.65-5.96-2.64-8.32Z"/>
  <path class="cls-1" d="M290.72,720.08c.38-10.54-3.07-18.26-10.71-20.53-11.26-2.98-19.46-14.11-23.24-18.76-5.23-6.44-6.08-20.03,4.73-19.15,10.17.83,10.53,28.26,20.87,25.38,4.32-1.2,6.13-3.07,6.34-9.38.09-5.97-10.85-45.14,4.18-41.47,9.82,2.55,13.15,29.61,12.38,39.33-.26,3.33,1.27,5.47,4.03,6.81,2.29,1.11,38.91,11.17,38.09,16.47-.82,4.97-23.17.38-34.4-1.65-5.76-.9-9.2,10.27-4.47,19.57,4.22,8.11,21.97,40.21,27.65,56.05.85,1.86,1.86,3.22,3.98,3.74,2.48.61,3.49,2.59,3.54,4.96.05,2.92.58,11.2-3.21,10.12-3.23-1.08-30.04-47.46-32.37-49.69-3.44-3.29-7.02-1.93-7.52,2.78-.59,5.64-3.02,40.71-4.94,51.9-.3,1.95-.86,5.7-3.13,5.71-3.12.01-2.86-6.34-3.09-8.87-.23-2.45.9-51.34,1.3-73.31Z"/>
  <path class="cls-1" d="M299.08,548.77c-3.08.29-9.07,39.3-9.65,40.75-.34.85-.71,1.99-2.17,1.79-1.2-.15-1.17-.99-1.29-2.19-.16-1.53,2.79-27.47,4.13-38.91,1.12-9.62,2.32-29.64-.71-36.05-1.59-3.36-3.26-3.96-6.44-1.88-2.21,1.45-15.29,12.07-18.7,7.23-4.59-4.8,18.72-19.65,24.22-24.19,2.44-2.01,3.45-4.64,3.38-7.75-.03-1.56-.07-3.11-.08-4.67-.02-3.78,1.87-6.11,5.62-6.96,2.89-.66,5.52.71,6.86,4.08.86,2.17,1.33,4.57,1.57,6.91.35,3.42,1.91,6.01,4.41,8.22,7.48,6.6,30.81,23.22,25.82,27.27-7.74,3.8-20.28-8.41-21.47-9.26-3.24-2.31-5.78-1.6-7.17,4.33-2.08,8.55,2.03,29.3,2.81,37.04,1.06,10.47,3.41,35.24,3.27,37.14-.05.68-.26,1.65-1.23,1.95-1.07.24-1.55-.85-1.77-1.47-1.25-3.52-7.5-43.73-11.43-43.38Z"/>
  <path class="cls-1" d="M308.15,386.24c-2.17.12-2.2-4.03-2.29-6.12-.59-14.35-1.45-46.45-4.64-59-1.23-4.83-3.83-5.96-8.42-3.98-2.93,1.26-10.58,5.41-11.63,3.35-.48-.95.63-2.31,1.39-2.83,4.19-2.94,8.53-5.66,12.8-8.48,2.98-1.96,4.48-4.57,4.22-8.31-.27-3.74-6.01-17.5,4.05-18.34,8.48-.71,6.59,10.83,6.76,14.18.22,4.23,2.36,6.93,5.95,8.45,3.77,1.6,7.77,2.65,11.62,4.04,2.48.9,9.03,3.28,8.82,5.21-.35,3.24-12.53-.3-15.92-1.02-5.56-1.19-7.56.42-7.59,5.98-.08,15.84,2.83,31.28,6.44,46.61,1.15,4.88,2.66,9.67,3.93,14.53.18.68.48,1.8-.14,2.23-.76.52-1.74.23-2.58-.84-1.58-2-2.64-4.37-3.86-6.62-1.03-1.91-2.25-3.35-4.73-2.81-2.39.52-2.83,2.36-2.95,4.37-.15,2.56.34,9.32-1.21,9.4Z"/>
  <path class="cls-1" d="M294.38,183.6c.1,6.9,2.6,22.19,2.16,24.64-.66,3.63-15.16,2.57-8.17-1.02,2.24-1.15,2.1-3.68,1.65-6.05-3.74-16.59-6.04-61.74-1.86-79.93,1.58-6.89-1.03-18.9-1.62-21.72-1.01-4.85-3.26-6.93-8.18-7.63-2.12-.3-13.82,1.95-12.18-7.35.56-3.16,4.77-33,9.63-33.19,1.15-.05,1.65,1.97,1.54,2.89-.47,3.87-5.95,29.6-1.38,31.02,3.86,1.2,9.29.39,13.28-.13,3.95-.51,6.02-3.04,6.18-6.96.16-3.9-4.52-20.28-1.02-20.57,1.23-.1,5.24,4.2,6.66,2.86.93-.87,10.52-30.13,13.68-29.07,2.77.93-7.43,28.73-7.07,30.63.39,2.06,5.7.79,6.54,1.38,2.14,1.49-5.6,13.18-6.67,15.2-2.42,4.55-1.84,8.75,1.85,12.3,2.39,2.3,27.67,21.02,24.82,25.83-2.75,3.98-17.22-12.74-23.67-15.69-.92-.42-3.24-.34-3.65,1.76-1.42,7.2-2.84,14.26-1.68,21.85,2.53,16.7,3.53,33.61,1.29,50.39-1.4,10.52-2.19,20.97-1.92,31.56.07,2.62,7.2,6.08,5.3,8.61-.72.97-8.99-1.1-10.92-3.33-1.71-1.98-.29-11.15-.95-15.97-.63-4.62-1.64-9.51-.64-14,1.81-8.08-.58-31.13-.99-34.57-.21.02-2.15,25.93-1.99,36.26Z"/>
  <path class="cls-1" d="M382.61,431.71c-1.02-.18-1.15-2.24-1.04-3.35,1.82-19.39,3.19-38.84,5.84-58.12,1.3-9.5,11.26-18.56,14.19-27.77,3.72-11.72,5.58-32.68,4.39-40.5-.65-3-1.88-3.75-4.71-2.38-2.19,1.06-13.83,10.29-17.88,13.11-7.57,5.15-9.27-7.28-7.18-8.82,1.4-.91,4.66,1.71,5.16,1.31,7.21-5.88,14.32-11.64,20.79-18.61,5.81-6.26,1.58-23.07.61-28.64-.39-2.25-1.71-3.27-4.23-3.29-4.76-.03-8.44-3.91-8.66-8.59-.2-4.38,3.03-8.14,7.63-8.96,4.56-.81,11.83,5.28,10.02,9.98-.98,2.53.11,4.58.97,6.95,2.02,5.54,3.49,28.9,15.59,33.53,1.54.59,6.09,2.31,5.29,4.8-.44,1.36-1.41,1.58-2.18,1.58-2.08.01-10.44-2.74-10.79,2.38-.25,2.52,1.73,28.52,6.76,34.63,8.72,10.59,6.39,25.75.38,38.65-3.51,7.54-7.31,14.93-11,22.38-.9,1.83-1.76,3.42,0,5.45,1.35,1.56.44,5.31-1.42,6.68-2.85,2.11-10.03,16.23-12.34,20.17-.47.81-1.68,2.08-2.65,1.71-1.16-.51-.96-2.12-.69-2.91,1.52-4.39,8.52-21.35,9.06-26.17.6-5.31,3.01-10.45,4.9-15.57,3.55-9.59,18.9-39.73,7.29-39.01-7.05.43-26.89,35.84-25.72,54.12.12,1.8.85,3.7,1.78,5.27,1.62,2.73,1.36,3.19-1.42,4.55-3.96,1.41-5.09,15.58-6.26,21.31-.31,1.5-.77,4.35-2.52,4.12Z"/>
  <path class="cls-1" d="M437.99,125.2c-1.78.77-3.51-2.23-4.73-3.71-4.07-4.94-14.24-18.5-15.85-19.8-4.07-3.31-9.17-1.42-9.93,3.34-1.25,8.89,11.74,69.24,22.26,75.28,2.89,1.52,6.12,2.69,5.53,4.76-.54,1.91-2.88,1.88-5,1.44-2.54-.5-3.18.76-3.26,2.99-.07,2,.32,7.57-2.17,7.73-2.18.14-3.84-4.99-4.3-7-1.54-6.85-11.55-50.75-14.44-54.94-1.5-3.08-3.87-3.46-5.63-.59-3.23,4.83-8.78,29.35-10.08,38.3-.89,5.95,1.82,9.73,1.67,12.36-.16,2.9-4.24,1.79-4.76,4.82-.31,1.8.16,7.32-3.36,7.33-3.13.01-3.42-8.17-2.89-11.11,2.78-15.56,11.15-53.25,12.91-59.69,1.93-7.25,2.33-14.65.89-22.01-.98-5.01-4-7.36-9.04-7.62-16.36-.33-19.63-23.36-19.63-24.78,0-1.31-.25-2.63,1.67-3.51,1.76-.27,2.46,1.11,2.9,2.13,8.95,20.72,24.34,20,23.31,9.47-.48-6.44-15.76-26.64-1.04-30.81,18.55-3.53,12.36,28.93,12.27,30.48-.33,5.28.95,9.14,6.74,11.15,10.66,1.8,22.07,24.37,25.85,30.19.98,1.42,1.2,3.22.11,3.79Z"/>
  <path class="cls-1" d="M426.02,581.01c-4.3-9.49-15.71-34.62-17.45-37.5-1.59-2.63-3.68-2.62-5.36-.03-.93,1.42-8.56,26.06-11.85,36.7-.52,1.68-.98,5.51-2.9,5.23-2.16-.39-1.36-4.33-1.11-6.37.71-5.8,6.97-35.67,8.41-44.95.98-6.27.74-12.76.74-19.15,0-3.03-1.41-3.8-4.15-2.36-4.12,2.17-8.01,4.76-12.08,7.03-1.39.78-3.01,1.49-4.55,1.57-2.43.12-3.54-1.94-2.11-3.88,1.27-1.73,15.71-12.37,21.31-16.17,1.95-1.33,2.49-2.85,1.9-5.15-.47-1.82-3.19-11.68,5.49-11.98,7.33-.25,5.95,10.02,5.85,10.73-.65,4.89,1.89,5.44,5.93,7.74,5.32,3.03,16.5,10.7,16.97,11.06.74.58,1.08,1.22.6,2.2-.48,1.06-1.57.64-2.15.42-2.38-.93-11.95-5.52-14.49-6.54-3.57-1.44-5.27-.28-5.25,3.56.06,10.09,2.28,19.72,5.82,29.14,4.26,11.37,13.03,36.07,13.49,37.74.3,1.09,1.15,2.8-.39,3.5-1.56.68-2.23-1.55-2.68-2.54Z"/>
  <path class="cls-1" d="M384.77,679.14c4.08-.88,5.91-3.02,5.72-7.95-.08-2.23-1.59-14.05,3.71-14.76,9.46-1.27,9,11.8,8.85,14.69-.2,3.63.67,6.93,3.45,8.02,6.36,2.5,16.81,26.83,23.54,31.21,1.39.9,9.46,3.45,9.48,10.35.13,3.73-6.18,4.68-9.03-.67-2.3-4.32-5.71-7.28-9.76-9.25-3.71-1.81-11.19-17.66-15.23-12.73-1.39,1.71-1.38,9.87,1.75,15.38,6.03,10.61,4.68,37.38,5.33,45.6.54,6.94.56,12.13,5.72,14.18,2.31.92,5.82,4.63,3.19,6.18-3.52,2.07-7.25,2.11-11.27,1.21-1.56-.35-2.22-1.41-2.6-3.26-.67-3.3-.14-7.39-.93-10.54-1.71-6.76-2.73-26.53-4.09-29.09-1.93-3.65-4.76-3.32-5.93.75-1.51,5.26-9.52,33.79-1.47,37.42,1.41.64,3.39,2.14,2.44,4.18-2.52,4.78-11.38-1.46-12.36-3.6-1.95-4.23-.08-20.86.33-24.51,1.26-11.49-1.34-22.69,5.19-40.97,3.39-9.5-3.57-21.63-12.17-23.17-7.12-1.28-12.53-5.03-12.7-13.66-.09-4.63-.35-9.27-.58-13.89-.09-1.73.66-2.56,1.95-2.87,1.7-.41,3.69.83,3.78,2.92.64,14.71,1.52,21.45,13.7,18.82Z"/>
  <path class="cls-1" d="M635.6,744.9c-1.51.39-3.37,18.92-3.94,20.63-.31.93-.88,2.21-2.09,2.22-1.7.02-2.25-1.35-2.71-2.24-2.9-5.64-1.51-27.24-.19-35.85.69-4.5.37-16.94-.24-18.43-2.17-5.29-8.37-6.78-11.92-2.43-2.82,3.45-8.41,17.16-11.19,18.35-1.21.52-3.11.9-3.98.31-.91-.62-1.6-2.71-1.26-3.8,1.16-3.72,7.12-18.39,8-22.25,1.2-5.25,2.49-6.54,7.77-6.27,8.86.46,13.43-4.54,12.33-13.44-.21-1.72-1.58-10.64,5.9-11.29,5.42-.09,9.58,3.42,8.94,8.78-.96,8.04,2.92,12.36,9.23,16.31,7.73,4.84,24.63,18.12,25.38,19.43.48.83,1.08,2.32.26,3.4-.86,1.13-2.63.85-3.52.48-1.99-.83-12.7-8.9-16.55-11.16-9.19-5.4-15.55-2.08-15.95,8.53-.23,6.01.62,12.03,3.96,17.41,4.32,6.95,5.46,14.68,4.8,22.68-.11,1.35-.7,3.58-2.37,3.88-1.82.09-3.1-1.58-3.86-2.84-1.34-2.24-5.45-12.56-6.78-12.4Z"/>
  <path class="cls-1" d="M663,588.76c-2.73.64-4.41-3.07-5.59-7.43-2.6-9.51-13.78-38.2-19.46-37.38-4.43.64-3.19,37.89-3.21,44.12,0,1.51,0,4.27-1.8,4.52-1.45.2-2.2-2.5-2.72-3.95-5.05-14.31-4.77-28.91-2.12-43.61,1.48-8.21,1.68-27.94,1.37-29.45-.61-3.01-2.34-3.75-4.82-1.9-2.49,1.85-12.82,9.23-15.78,10.57-.77.35-1.74,1.24-3.04-.53-1.08-1.12.34-2.03.93-2.63,5.59-5.65,11-11.52,17.02-16.68,3.62-3.1,4.76-6.36,4.05-10.77-.41-2.52-5.69-16.76,6.79-16.81,9.57-.04,5.06,15.86,4.91,17.13-.33,2.85.7,4.83,3.37,6.21,7.31,3.76,24.26,13.24,25.14,14.36.56.72,1.15,1.67.49,2.94s-1.6,1.49-2.32,1.38c-2.67-.42-15.12-5.46-18.82-7-3.32-1.39-4.45-.55-4.31,3,.37,9.41,2.23,18.41,6.43,26.99,5.91,12.07,11.31,24.39,14.42,37.55.67,2.82,1.52,8.91-.91,9.38Z"/>
  <path class="cls-1" d="M634.91,200.97c-.75.45-1.38.97-2.09,1.22-1.41.49-2.86,1.14-4.3,1.14-.97,0-1.94-1.02-2.91-1.58.55-.83.92-1.9,1.67-2.44,4.92-3.51,6.24-8.21,4.99-13.92-2.12-9.71-4.5-19.38-6.14-29.17-1.2-7.13-1.8-14.43-1.9-21.66-.08-5.55.76-11.16,1.69-16.66,1.45-8.6-.23-16.64-3.61-24.45-1.09-2.52-3.36-3.81-5.9-4.61-2.32-.74-4.7-1.33-6.93-2.29-3.8-1.63-5.18-4.67-3.82-8.54.91-2.6,2.14-5.09,3.38-7.55,1.24-2.45,1.77-4.89,1.07-7.63-.32-1.24-.5-2.72-.12-3.88.37-1.11,1.45-2.63,2.39-2.77,1.8-.26,2.14-1.34,2.68-2.6,1.38-3.27,2.8-6.53,4.28-9.76.32-.7.96-1.26,1.46-1.88.18.08.36.16.54.24-.09.59-.1,1.2-.27,1.76-.37,1.19-.77,2.38-1.24,3.54-2.43,5.88-3.92,11.94-4.45,18.32-.27,3.23-1.44,6.4-2.35,9.56-1.05,3.67.78,6.6,4.58,6.76,2.9.13,5.81,0,8.71-.12,3.3-.12,4.98-2.28,4.46-5.58-.35-2.21-.84-4.41-1.06-6.63-.36-3.66.27-7.19,2.57-10.12,2.17-2.76,2.57-5.57,1.62-8.88-.97-3.36-.71-6.68,1.42-9.64.46-.63.99-1.26,1.63-1.69,2.19-1.49,4.51-.81,5.07,1.75.63,2.88.81,5.86,1.02,8.81.14,1.97-.04,3.96-.05,5.94-.04,3.79-.38,7.52.94,11.3,1.31,3.74.25,7.59-1.23,11.18-2.04,4.96-3.18,6.12,3.38,9.99,5.32,3.14,11.1,5.49,16.62,8.29,1.99,1.01,3.86,2.25,5.72,3.49.4.26.78,1.03.67,1.44-.11.43-.82,1.03-1.24,1.01-1.41-.08-2.91-.16-4.19-.69-3.29-1.35-6.48-2.93-9.71-4.42-4.56-2.1-8.27-.84-10.57,3.65-3.01,5.89-3.2,12.24-2.41,18.56.53,4.28,2.06,8.42,2.91,12.68,1.62,8.13.9,16.28-.01,24.43-.52,4.64-1.13,9.3-1.24,13.96-.2,7.77.28,15.53-1.63,23.21-.87,3.48-.8,7.19,1.59,10.42.93,1.25-.28,3.2-1.97,3.56-2.32.5-4.43-.84-5.06-3.31-.3-1.18-.41-2.42-.62-3.77Z"/>
  <path class="cls-1" d="M636.36,372.31c.4-8.44-2.61-25.78-4.17-28.75-1.8-3.43-3.79-3.55-5.62-.19-1.57,2.88-10.18,43.69-10.36,45.91-.42,5.17-2.93,7.07-7.12,5.42-1.5-.59-2.46-2.95-1.76-4.55,3.08-7.02,9.16-36.24,10.13-40.58,1.9-8.46,13.04-46.82,3.51-54.02-2.53-1.91-8.2,2.15-10.6,9.19-2.84,8.35-9.4,3.48-9.8-.8-.27-2.89.9-6.28,3.32-6.75,4.13-.8,6.57-4.27,9.33-7.2,2.53-2.69,4.92-3.89,8.25-1.95,4.99,3.88,10.5-1.96,10.3-6.22-.14-3.06-1.79-14.76,5.71-14.79,8.21-.03,6.39,13.12,4.5,16.5-1.52,2.72-1.32,5.03.15,7.33,3.34,5.22,6.97,10.19,10.15,15.54,3.73,6.27,8.84,9.35,14.99,10.92,2.31.59,7.09,7.38,6.35,9.83s-7.26-.07-9.07-1.45c-5.62-4.29-17.65-14.58-18.26-15.05-2.98-2.28-4.91-1.68-5.85,2.45-1.8,7.91-3.12,15.81-.62,24.05,2.72,8.98,4.23,42.4,4.26,49.63.02,4.55,1.45,7.93,4.77,10.31.79.56,2.13,1.49,1.89,2.6-.78,3.59-11.67,2.4-11.42-3.38.29-6.61-3.31-16.63-2.99-23.99Z"/>
</svg>