<?xml version="1.0" encoding="UTF-8"?>
<svg id="Livello_1" data-name="Livello 1" xmlns="http://www.w3.org/2000/svg" viewBox="0 0 841.89 841.89">
  <defs>
    <style>
      .cls-1 {
        fill: #1b8741;
      }
    </style>
  </defs>
  <path class="cls-1" d="M412.13,596.17c-2.69,1.56-5.16,2.61-8.21,1.83-1.49-.38-2.71.69-2.95,1.96-.23,1.25.58,2.79,1.89,3.12,1.26.32,2.66.64,3.9.41,2.4-.44,4.86-1,7.08-1.97,11.36-4.97,21.79-11.52,31.48-19.23,4.5-3.59,7.89-8.17,10.96-13,2.03-3.2,4-6.49,6.43-9.37,6.31-7.48,14.92-9.64,24.13-6.39.89.31,1.74.73,2.81,1.18,1.36-1.26,2.61-2.63,4.07-3.72,1.73-1.3,3.88-1.46,5.98-1.52,1.89-.05,3.78-.01,5.81-.01,6.97-5.93,14.89-5.37,23-2.75,1.54.5,3.36,1.1,3.26,3.73-1.27.46-2.62,1.01-4.01,1.44-4.3,1.31-7.89,3.65-10.66,7.21-1.37,1.76-2.07,3.8-1.17,5.86,1.63,3.74,1.95,7.28-.99,10.45,3.04,3.18,7.22,4.51,8.82,8.88-.94.45-1.7,1.08-2.52,1.16-1.5.15-3.03-.03-4.54-.06-3.03-.06-6.07-.14-9.1-.17-2.37-.02-4.5.58-6.15,2.43-.25.28-.57.5-.86.75-8.13,7.16-17.46,12.07-27.96,14.66-3.07.76-5.56,2.19-7.88,4.27-8.63,7.74-17.66,14.96-27.37,21.33-2.88,1.89-5.9,3.37-9.16,4.49-7.73,2.66-15.61,4.79-23.64,6.21-8.36,1.47-16.67.79-24.71-1.96-6.97-2.39-12.02-7.11-15.42-13.59-2.87-5.46-4.25-11.34-4.66-17.47-.66-9.85,1.04-19.27,5.06-28.29,1.85-4.16,3.66-8.33,5.47-12.51,1.65-3.8,1.81-7.71.89-11.71-1.23-5.36-4.19-9.42-9.39-11.33-3.54-1.3-7.25-2.37-10.98-2.84-17.87-2.26-35.58-1.59-53.07,3.14-6.03,1.63-12.17,2.93-18.31,4.12-6,1.17-12.08,1.05-18.16.47-1.7-.16-3.36-.47-4.83-1.7,1.2-3.82,2.47-7.59,3.55-11.41,2.34-8.24,4.21-16.58,3.93-25.2-.09-2.8-.75-5.62-1.48-8.35-.31-1.17-1.32-2.32-2.32-3.08-.56-.43-1.94-.35-2.58.07-.63.42-1.32,1.8-1.07,2.33,3.88,8.15,1.99,16.42.44,24.58-1.84,9.72-5.15,19.02-9.4,27.98-1.47,3.11-3.25,5.97-5.66,8.47-2.1,2.18-4.04,4.53-5.97,6.88-4.14,5.04-7.28,10.62-9.05,16.94-3.17,11.29-9.46,20.61-18.14,28.38-3.54,3.16-7.08,6.32-10.59,9.52-6.16,5.6-10.51,12.38-13.42,20.18-3.86,10.33-7.32,20.75-8.9,31.71-1.31,9.04-2.13,18.09-.64,27.21.71,4.34,1.71,8.57,4.03,12.36,1.73,2.82,3.9,5.24,7.41,5.64.72.08,1.88-.62,2.22-1.28.35-.68.15-1.84-.21-2.61-.27-.59-1.14-.93-1.77-1.33-2.35-1.5-3.81-3.6-4.58-6.8,1.11.2,1.98.21,2.74.52,3.19,1.3,6.34,1.03,9.42-.27,2.79-1.17,5.5-2.56,8.27-3.79,2.42-1.08,4.82-2.25,7.32-3.09,5.09-1.71,10.09-1.43,14.86,1.22.66.37,1.34.67,2.22,1.11,6.85-2.47,13.92-3.05,21.13-1.25,4.16,1.04,6.46,2.15,9.93,5.05-.09,1.09-.91.99-1.64.97-5.69-.1-10.82,1.79-15.62,4.62-3.83,2.27-6.97,5.35-8.71,9.5-1.96,4.68-5.71,6.92-10.28,8.17-2,.55-4.05.94-6.58,1.52.77,1.13,1.28,2,1.92,2.77,1.32,1.6,2.97,2.99,4.01,4.74,1.61,2.7.32,5.49-2.72,6.08-1.84.35-3.79.46-5.65.26-5.39-.57-9.68,1.21-12.98,5.47-.35.45-.76.85-1.13,1.28-6.84,8-16.29,8.09-23.8,4.59-1.54-.72-2.95-1.71-4.47-2.49-1.34-.68-2.71-1.39-4.15-1.81-1.75-.51-3.55.77-3.62,2.61-.06,1.68.12,3.4.43,5.06.42,2.23,1.15,4.41,1.6,6.64,1.1,5.54-.03,10.55-3.81,14.87-.12.14-.24.3-.38.43-4.41,3.99-5.54,8.78-3.92,14.48.5,1.77.45,3.79.26,5.65-.45,4.4-3.79,6.59-8.13,5.5-2.69-.68-4.89-2.24-6.35-4.53-1.41-2.22-2.78-4.59-3.53-7.08-1.08-3.59-3.19-5.96-6.54-7.36-8.35-3.48-11.29-10.15-11.04-18.7.15-4.99,1.37-9.77,3.13-14.4,1.61-4.25,3.28-8.51,5.31-12.58,3.6-7.2,4.64-14.72,4.03-22.66-.46-6.05-.49-12.13-.69-18.2-.23-7.04.48-14.03,1.28-21.01.39-3.37.79-6.75,1.22-10.48,1.34.67,2.45,1.31,3.63,1.81,1.03.43,2.11.86,3.21,1,.96.12,2.01-.37,2.17-1.43.13-.85-.04-1.88-.45-2.63-.32-.58-1.18-.9-1.85-1.25-3.71-1.93-6.11-5.07-7.92-8.69-3.39-6.79-4.4-14.06-4.07-21.57.13-2.91,1.14-5.59,2.59-8.06,2.11-3.6,4.33-7.14,6.58-10.65,2.46-3.83,5.11-7.54,7.49-11.42,6.69-10.93,9.39-22.8,7.24-35.47-1.83-10.82.19-20.74,5.71-30.07,2.32-3.92,4.66-7.82,7.08-11.68,4.59-7.34,7.72-15.14,8.53-23.88.33-3.56,1.46-7.05,2.34-10.54,2.12-8.46,4.23-16.93,6.51-25.35.84-3.09,1.93-6.16,3.3-9.04,3.27-6.85,6.78-13.58,10.19-20.36,6.18-12.28,13.92-23.5,23.15-33.68,18.44-20.32,38.54-38.74,61.53-53.87,7.14-4.7,14.57-8.87,22.21-12.71,9-4.53,18.47-6.78,28.51-6.8,1.14,0,2.28.01,3.41-.09,1.69-.15,2.63-1.03,2.68-2.36.05-1.36-.9-2.46-2.46-2.58-1.7-.13-3.42-.16-5.12-.09-3.77.15-7.53.39-11.22.58-2.26-4.13-2.32-5.85-.45-12.12,1.74-.91,3.6-1.84,5.4-2.86.97-.55,2.1-1.23,1.56-2.61-.5-1.28-1.83-1.36-2.92-1.19-1.85.28-3.73.66-5.48,1.31-4.7,1.75-9.51,2.64-14.51,2.23-2.23-.18-4.43-.73-6.52-1.09-1.83-4.29-.83-8.22-.11-12.1.29-1.56,1.6-2.34,3.18-2.9,4.64-1.64,9.22-3.46,13.79-5.29,1.22-.49,2.4-1.16,3.46-1.94,1-.74,1.22-1.88.76-3.07-.39-1.02-1.69-1.68-2.81-1.3-1.25.43-2.42,1.07-3.66,1.54-4.6,1.77-9.19,3.56-13.82,5.23-3.56,1.28-7.15,1.04-10.49-.72-3-1.59-6-3.27-8.74-5.26-4.18-3.04-7.4-7.07-10.45-11.2-1.01-1.37-1.84-2.83-1.83-5.02,1.63-.03,3.07-.08,4.52-.08,5.5-.01,11,.08,16.49-.07,1.66-.04,3.35-.6,4.93-1.19.8-.3,1.65-1.09,1.97-1.87.31-.74.28-1.97-.15-2.59-.43-.61-1.75-1.24-2.35-1-8.54,3.34-17.22,1.74-25.86.86-1.85-.19-3.66-.91-5.46-1.49-2.7-.86-4.21-2.63-5.25-5.42-5.02-13.51-13.56-24.47-25.02-33.18-5.17-3.93-10.79-7.04-16.86-9.36-4.84-1.85-5.7-2.86-7.41-8.34,1.29-1.17,2.51-.22,3.66.22,8.52,3.26,17.21,5.94,26.08,8.03,7.4,1.74,14.84,3.22,22.49,3.11,1.51-.02,3.03-.17,4.51-.42,1.05-.18,2.07-1.66,1.68-2.59-.32-.77-1.09-1.43-1.81-1.94-.4-.29-1.1-.23-1.66-.22-11.73.22-22.94-2.63-34.1-5.76-2.92-.82-5.74-1.99-8.67-2.76-7.12-1.89-13.32-5.47-18.85-10.22-4.74-4.08-9.38-8.29-13.87-12.64-2.02-1.96-3.65-4.36-5.31-6.66-.64-.89-.93-2.05-1.29-3.12-.09-.28.18-.67.39-1.38,1.16.63,2.28,1.18,3.34,1.83,11.6,7.15,24.05,12.09,37.5,14.35,4.48.75,9.04,1.09,13.57,1.53,1.11.11,2.36.09,3.34-.35.7-.31,1.42-1.39,1.45-2.15.03-.75-.64-1.98-1.29-2.22-1.38-.5-2.94-.59-4.44-.68-19.04-1.11-36.38-7.12-51.95-18.15-9.1-6.45-16.67-14.34-22.3-24.02-2.18-3.76-2.58-5.37-2.69-10.66,1.43.89,2.69,1.58,3.84,2.42,10.91,7.99,22.52,14.79,34.94,20.13,3.83,1.65,7.77,3.04,11.68,4.48.87.32,1.9.65,2.74.45.78-.18,1.77-.93,2-1.65.23-.72-.09-2.05-.66-2.5-1-.8-2.33-1.2-3.57-1.64-16.75-6-32.17-14.46-46.23-25.34-4.79-3.71-9.4-7.71-13.69-11.99-6.8-6.79-10.35-15.31-11.84-24.73-.15-.93-.11-1.89-.08-2.84.01-.33.26-.65.43-1.03,1.8-.2,2.6,1.35,3.66,2.28,17.75,15.55,36.76,29.39,56.92,41.61,6.81,4.13,13.88,7.83,20.86,11.67,1.14.63,2.42,1.22,3.68,1.35.71.08,1.85-.65,2.19-1.32.34-.67.25-2.02-.22-2.54-.86-.94-2.1-1.58-3.27-2.17-19.5-9.95-37.72-21.93-55.17-35.09-11.53-8.69-22.48-18.05-32.83-28.14-6.49-6.34-6.36-13.74-4.59-21.58.6-2.67,2.24-4.78,5.79-5.13.22.33.54.8.85,1.28,7.92,12,18,22.02,28.88,31.26,17.58,14.93,36.82,27.39,57.11,38.29,1,.54,2.03,1.06,3.11,1.36,1.17.33,2.24,0,2.94-1.14.59-.96.43-2.35-.58-3.04-1.4-.97-2.89-1.81-4.38-2.62-18.08-9.76-35.26-20.88-51.19-33.9-9.43-7.71-18.31-15.98-25.94-25.51-3.93-4.9-7.33-10.12-9.94-15.88-1.5-3.31-1.04-6.25.78-9.17,1.71-2.76,4.16-4.36,7.44-4.6,2.89-.21,5.66.22,8.35,1.31,3.74,1.51,6.99,3.8,10.09,6.32,6.18,5.03,12.29,10.16,18.55,15.09,17.52,13.81,36.55,25.16,56.8,34.48,2.52,1.16,4.34,2.57,5.69,5.13,5.84,11.03,14,20.25,23.04,28.74,1.24,1.16,2.41,2.4,3.58,3.63.1.11.05.37.09.76-1.52.5-3.13.9-4.65,1.54-4.03,1.7-5.7,4.66-5.25,9.06.3,2.93,1.68,5.41,3.28,7.78,3.55,5.26,8.2,9.44,13.09,13.38,2.06,1.65,4.18,3.22,6.13,4.72.2,1.82-1.25,1.97-2.08,2.5-4.75,3-7.06,8.41-2.99,14.84,1.8,2.84,4.19,5.43,6.75,7.62,3.15,2.7,6.76,4.87,10.17,7.27.76.53,1.51,1.06,2.73,1.92-1.93.62-3.35,1.02-4.72,1.54-6.34,2.42-8.46,7.55-5.63,13.71,1.37,2.97,3.37,5.56,5.88,7.61,2.78,2.27,5.8,4.25,8.74,6.33,1.06.75,2.19,1.39,3.74,2.36-1.81,1.1-3.45,1.36-4.91,1.99-7,3.05-8.33,8.87-3.04,14.49,2.18,2.31,4.81,4.35,7.57,5.94,4.26,2.46,8.78,4.46,13.22,6.6,1.51.73,3.1,1.29,4.5,1.86.4,1.46-.61,1.87-1.24,2.51-2.24,2.3-4.82,4.37-6.63,6.97-4.61,6.63-2.87,13.37,4.14,17.3,3.54,1.98,7.42,2.85,11.39,3.36,1.47.19,2.95.27,4.32.39.55,1.36-.38,1.91-.9,2.66-1.51,2.17-3.37,4.2-4.38,6.59-2.85,6.69.31,12.75,6.54,14.48,4.41,1.23,8.83,2.18,13.45,1.39,2.37-.41,4.76-.65,7.51-1.02-.15,1.08-.25,1.78-.33,2.48-.26,2.25-.78,4.51-.71,6.75.19,6.11,4.19,10.66,10.17,12.07,3.63.86,7.2.56,10.69-.47,6.16-1.82,11.31-5.29,15.5-10.16.6-.7,1.23-1.57,1.33-2.42.1-.8-.24-2-.83-2.45-.6-.46-1.93-.56-2.58-.18-1.11.64-1.95,1.76-2.88,2.7-3.67,3.73-7.95,6.42-13.07,7.7-2.44.61-4.87.79-7.3.06-3.82-1.16-6.23-4.12-5.9-8.05.44-5.28,2.35-10.02,7.06-13.01,3.18-2.02,6.34-4.02,10-5.29,5.25-1.83,8.72-5.89,11.13-10.85.25-.51.62-1.15.49-1.6-.24-.85-.62-1.92-1.28-2.3-.66-.38-2.03-.35-2.57.11-.97.82-1.59,2.08-2.29,3.19-1.65,2.62-3.74,4.79-6.48,6.26-5.11,2.74-10.84,1.42-14.01-3.44-1.11-1.7-1.96-3.74-2.31-5.74-.89-5.04.12-9.8,2.93-14.15,1.52-2.35,3.34-4.08,6.38-4.05.93,0,1.87-.32,2.78-.55,2.16-.55,2.94-1.35,2.86-2.88-.08-1.65-1.25-2.32-3.89-2.14-1.51.11-3.03.24-4.53.49-4.94.81-9.85.42-14.74-.38-3.39-.55-6.68-1.53-9.5-3.58-3.43-2.49-3.94-5.52-1.3-8.78,1.29-1.59,3.01-2.86,4.62-4.18,1.23-1.01,2.65-1.11,4.27-.97,3.39.3,6.81.32,10.22.31.88,0,1.88-.4,2.59-.92.52-.38,1.01-1.35.88-1.91-.19-.82-.82-1.93-1.5-2.14-1.2-.38-2.6-.27-3.9-.2-5.41.28-10.6-.58-15.51-2.89-3.12-1.47-5.92-3.41-8.11-6.13-4.81-5.97-3.72-12.42,2.85-16.39,1.45-.88,3.06-1.47,4.73-2.26,1.34.84,2.6,1.65,3.88,2.43,3.56,2.18,7.1,4.38,10.7,6.5.96.57,2.04,1.03,3.13,1.28,1.22.29,2.4-.23,2.71-1.45.2-.78,0-1.97-.5-2.56-.7-.83-1.85-1.27-2.81-1.87-3.71-2.29-7.51-4.45-11.11-6.9-4.72-3.21-9.13-6.86-12.76-11.28-2.16-2.62-4.24-5.41-5.74-8.43-3.78-7.6-1.19-12.49,7.28-13.75,3.14-.47,6.46-.34,9.63.03,5.66.67,11.22,1.92,16.24,4.87.97.57,2.05.99,3.13,1.36,1.5.51,2.79.05,3.45-1.12.65-1.14.24-2.57-1.1-3.38-1.13-.68-2.39-1.16-3.54-1.83-5.25-3.03-10.61-5.91-15.69-9.2-2.83-1.84-5.31-4.28-7.75-6.66-1.33-1.3-2.42-2.94-3.3-4.59-2.14-4.03-1.31-7.22,2.48-9.85,1.39-.96,2.99-1.63,4.46-2.49,1.09-.63,1.71-1.69,1.26-2.86-.3-.77-1.12-1.41-1.83-1.93-.41-.3-1.09-.26-1.65-.34-6.31-.9-12.05-3.35-17.42-6.67-14.44-8.92-25.26-21.12-32.42-36.49-2.4-5.16-4.12-10.56-4.23-16.42,1.89-.65,2.91.72,4.06,1.45,13.86,8.79,28.46,15.98,44.46,19.95,7.91,1.96,15.92,3.52,23.91,5.15,7.99,1.63,16,3.17,23.77,5.73,10.83,3.56,20.41,9.16,28.2,17.56,5.89,6.36,10.42,13.53,12.2,22.16,1.13,5.47,1.12,10.92-.8,16.67-6.12,3.06-11.26,7.09-8.44,15.3-1.06,2.47-2.91,4.14-4.49,6-3.81,4.48-7.7,8.9-10.68,14.02-3.34,5.72-5.12,11.83-4.6,18.49.79,10.22,5.37,18.02,14.67,22.79,7.03,3.6,14.51,4.26,22.18,3.2,4.88-.68,9.7-1.79,14.58-2.51,6.56-.97,13.14-1.89,19.74-2.54,3.57-.35,7.2-.05,10.81-.1,3.47-.05,5.68,1.63,7.11,5.07-1.68.9-3.3,1.81-4.95,2.65-7.82,3.95-15.21,8.56-21.92,14.22-5.4,4.55-10.18,9.68-13.84,15.76-2.46,4.09-4.26,8.43-5.2,13.16-1.42,7.2-.35,13.99,3.08,20.4,2.53,4.73,4.31,9.69,5.47,14.9.12.56.35,1.1.38,1.66.65,11.22.11,12.03-8.7,16.05-10.78,4.92-21.96,5.52-33.26,1.64-3.05-1.05-6.15-2-9.08-3.33-7.49-3.39-15.08-3.35-22.79-1.08-8.55,2.53-16.44,6.67-25.04,10.06.47,1.16.66,2.09,1.17,2.78,5.33,7.15,10.54,14.4,16.11,21.36,8.64,10.8,19.99,17.31,33.51,20,5.4,1.07,10.87,1.7,16.41,1.06,1.3-.15,2.61-.17,4.05.31-1.58.53-3.13,1.18-4.73,1.58-13.13,3.32-26.44,5.07-40.02,4.47-1.14-.05-2.29-.17-3.41-.06-2.73.25-3.96,2.6-2.57,4.88.69,1.13,1.49,2.2,2.34,3.22,14.45,17.24,32.43,28.98,54.26,34.62,4.6,1.19,9.31,1.84,14.09,1.64,4.8-.2,9.4-1.16,13.62-3.6.65-.38,1.33-.7,2.02-1.01.15-.07.37.03.88.09,2.4,6.17,4.53,12.66,8.65,18.18,2.5,3.34,4.99,6.69,7.52,10,.33.44.85.75,1.33,1.05.31.19.71.24,1.06.35.38-.06.82-.01,1.11-.2,7.95-5.29,16.97-8.44,25.38-12.79,5.73-2.96,11.43-5.96,17.15-8.92.49-.25,1.04-.39,1.56-.58.19.39.52.75.46,1.02-1.25,5.56-2.51,11.11-6.14,15.74-.58.74-1.11,1.54-1.51,2.39-.52,1.11.46,2.88,1.67,3.15.55.12,1.13.19,1.69.15,8.13-.59,16.31-.47,24.37-2.06,10.34-2.05,20.14-5.44,28.91-11.41,9.55-6.5,16.62-14.94,19.98-26.15.82-2.72,1.35-5.51,2.07-8.52,10.19-3.46,16.78-11.63,23.73-19.6.83,2.8.82,2.8.32,6.64-.29,2.26-.48,4.53-.8,6.78-.32,2.25-.68,4.5-1.14,6.73-.46,2.23-1,4.44-1.62,6.63-.61,2.16-1.36,4.29-2.03,6.36.22.24.32.45.48.51,8.46,3.1,17.14,4.73,26.18,3.88,6.41-.6,10.91-3.99,13.78-9.67.6-1.18,1.15-2.39,1.72-3.59,4.43-9.19,10.05-11.71,20.26-8.78,1.06-.99,2.23-2.19,3.52-3.23,1.62-1.3,3.22-2.7,5.05-3.63,3.2-1.63,5.92-.5,7.47,2.75,1.12,2.35,1.28,4.91.53,7.23-1.58,4.91-2.07,10.02-3.15,15.01-.28,1.29-.7,2.56-1.11,3.82-1.46,4.39-4.24,7.04-9.13,7.19-1.87.06-3.78.44-5.57.99-1.01.31-1.91,1.2-2.7,1.98-1,.99-.73,2.65.43,3.46,2.15,1.5,4.61,1.62,7.09,1.46,4.21-.28,8.21-1.41,12.09-3.02,2.1-.87,4.22-1.71,6.37-2.43,5.39-1.8,9.83-.06,13.08,4.27,4.96,6.61,5.65,13.92,2.45,21.52-2.25,5.34-6.19,9.01-11.63,11.03-1.05.39-2.1.79-3.18,1.2-.31,1.79-.59,3.47-.9,5.14-1.28,6.97-4.43,12.94-10.05,17.34-2.42,1.89-3.63,4.09-4.15,7.07-.82,4.72-2.69,9.09-5.65,12.92-5.14,6.67-11.23,8.41-19.12,5.41-1.59-.6-3.09-1.45-4.65-2.13-1.73-.75-3.43-1.65-5.24-2.13-5.81-1.53-9.98-5.28-13.65-9.74-.41-.5-.42-1.31-.71-2.3,2.98-.47,4.94,1.39,7.22,1.98,2.23.58,4.42,1.04,6.83.23,1.76-2.8,1.21-5.79.33-8.69-1.52-4.99-4.32-9.26-7.98-12.96-5.13-5.2-11.19-9.06-17.69-12.28-7.89-3.9-16.3-6.19-24.89-7.82-4.09-.77-8.22-1.3-12.63-1.99-.49.9-.77,1.81-1.36,2.41-.75.77-1.67,1.62-2.65,1.85-1.83.41-3.76.46-5.65.55-6.57.31-12.72,2.15-18.47,5.23-3.84,2.06-7.51,4.43-11.25,6.68-.81.49-1.53,1.13-2.33,1.63-5.08,3.21-10.51.53-11.03-5.52-.28-3.24.16-6.4,1.34-9.5.89-2.34.26-3.79-1.37-4.21-1.39-.36-2.68.32-3.39,2.28-.82,2.3-1.41,4.71-1.9,7.11-.3,1.47-.22,3.01-.31,4.45-11.24,7.59-27.88,9.63-37.6,4.48.54-.94,1.11-1.86,1.59-2.82,1.27-2.53,2.55-5.06,3.71-7.65.37-.83.44-1.83.49-2.77.06-1.15-.91-2.33-2.06-2.26-.83.05-1.98.43-2.38,1.05-.79,1.25-1.13,2.79-1.71,4.18-5.89,14.26-23.58,18.02-34.87,7.42-.26-.25-.39-.63-.73-1.2.88-1.28,1.93-2.61,2.76-4.05,1.15-1.99,2.05-4.16,1.51-6.5-.17-.74-1.11-1.68-1.83-1.82-.73-.14-1.91.37-2.38.99-.66.86-.87,2.07-1.24,3.14-1.26,3.62-3.95,5.47-7.61,5.96-3.04.41-6.04.16-8.99-.82-6.3-2.1-11.44-5.79-15.8-11.25.82-.83,1.61-1.54,2.29-2.34.78-.92,1.15-1.99.4-3.12-.74-1.09-1.86-1.23-3.03-.97-.74.16-1.44.46-2.17.69-5.59,1.8-10.05-.05-13.68-4.34-2.11-2.5-3.44-5.44-4.19-8.63-.39-1.66-.71-3.34-1.17-4.98-.31-1.1-1.64-1.87-2.68-1.64-1.26.28-1.98,1.18-1.99,2.42-.02,1.87.14,3.73.23,5.56-4.37,1.03-7.08.87-11.71-.9-7.28-2.79-14.67-5.18-22.29-6.81-7.81-1.67-15.69-2.83-23.71-2.63-2.65.06-5.29.43-7.93.72-.74.08-1.66.17-2.13.63-.61.59-1.25,1.6-1.15,2.34.09.72.99,1.66,1.73,1.89,1.03.32,2.24.15,3.36.07,20.64-1.43,39.93,3.44,58.22,12.65,7.11,3.58,14.05,7.52,20.9,11.6,4.06,2.42,7.89,5.26,11.61,8.2,5.49,4.34,9.33,9.98,11.4,16.67,1.23,3.97,2.16,8.05,2.95,12.14,1.31,6.72.23,13.25-2.3,19.52-1.56,3.86-3.42,7.61-5.27,11.35-2.19,4.42-4.62,8.72-6.74,13.17-4.17,8.74-5.87,18-5.18,27.66.19,2.61.68,5.21,1.03,7.86Z"/>
  <path class="cls-1" d="M652.78,283c-1.55.48-1.91-.9-2.49-1.71-5.21-7.28-11.1-13.97-17.6-20.11-3.17-2.99-6.59-5.72-9.92-8.53-.72-.61-1.53-1.13-2.36-1.59-2.04-1.15-3.74-.79-4.66,1.42-.94,2.24-1.66,4.65-1.98,7.05-.6,4.53-.3,9.08.84,13.9-1.16.25-2.23.77-3.2.62-2.61-.41-5.27-.83-7.73-1.74-13.07-4.84-24.19-12.58-33.31-23.11-1.83-2.12-3.18-4.68-4.57-7.15-1.59-2.84-2.68-3.73-5.86-3.28-2.03.28-4.15.84-5.91,1.84-3.62,2.05-7.21,4.24-10.48,6.8-6.91,5.41-13.03,11.61-17.6,19.2-.28.47-.71.86-1.04,1.24-1.57.43-2.57-.6-3.69-1.2-1.17-.63-2.32-1.31-3.4-2.07-11.48-8.11-22.82-16.4-31.91-27.3-1.56-1.88-3.29-3.66-4.21-6.36.86-.45,1.6-1.04,2.43-1.25,2.02-.5,4.11-.73,6.14-1.22,5.48-1.32,10.27-3.86,14.1-8.09,1.43-1.57,2.58-3.29,2.94-5.43.43-2.54-1.55-4.76-4-4.1-2.34.63-4.54,1.81-6.75,2.86-2.73,1.3-5.35,2.84-8.13,4.02-1.95.83-4.08.8-6.13.07-3.24-1.17-4.84-3.58-4.41-7.06.18-1.48.81-2.9,1.27-4.33.59-1.8,1.32-3.56,1.82-5.38,1.12-4.1-.13-7.56-3.39-10.14-2.22-1.75-4.71-3.18-7.12-4.68-3.22-2.01-6.45-3.99-9.2-7.16.73-.85,1.4-1.68,2.12-2.46,2.04-2.24,4.34-4.3,6.08-6.75,1.51-2.12,2.57-4.62,3.51-7.08,1.09-2.85.46-5.61-1.28-8.1-.63-.9-1.36-1.74-2.28-2.91,4.3-1.93,8.53-2.52,12.84-2.73,11.7-.57,23.07,1.22,34.15,4.96,2.34.79,4.64,1.68,7.02,2.33,3.17.88,6.36.95,9.48-.4,5.32-2.3,6.64-6.79,3.34-11.5-1.56-2.22-3.61-3.88-6.05-5.06-1.35-.65-2.74-1.25-3.9-1.78-1.77-5.64-3.47-11.04-5.33-16.97.45-.51,1.27-1.45,1.93-2.19.74-.03,1.17-.19,1.47-.05,7.8,3.7,15.51,2.74,23.13-.52,4.41-1.89,8.29-4.61,11.42-8.29,1.92-2.26,1.65-4.29-.93-5.57-1.84-.91-3.87-1.6-5.89-1.93-5.73-.96-11.36-.09-16.85,1.62-5.28,1.64-10.24,4.01-14.82,7.13-1.25.85-2.48,1.72-4.05,2.81-2.84-3.38-5.61-6.66-8.49-10.08,3.18-7.91,8.61-13.25,17.2-14.79,4.09-.73,8.26-1.23,12.41-1.45,9.51-.51,18.95.63,28.4,1.5,8.31.76,16.63,1.41,24.94,2.11.54.05,1.08.18,1.57.27.67,1.19-.19,1.82-.78,2.5-8.24,9.4-5.48,20.28,2.27,27.31,6.9,6.26,15.25,9.09,24.4,9.6,3.76.21,7.54-.13,11.69-.23-.25.74-.3,1.52-.7,1.99-8.91,10.43-18.51,20.1-30.62,26.9-.65.37-1.51.72-1.79,1.31-.36.76-.57,1.91-.24,2.61.33.68,1.36,1.23,2.18,1.41.64.14,1.49-.25,2.12-.61,2.31-1.31,4.76-2.45,6.8-4.11,5.45-4.41,10.72-9.04,16.04-13.63,1.42-1.23,2.72-2.59,4.38-4.19.59,1.04,1.17,1.75,1.41,2.55,1.92,6.39,2.65,13,3.48,19.58,1.05,8.32,3.02,16.41,5.98,24.25,3.19,8.44,8.1,15.85,13.81,22.77,2.3,2.78,4.59,5.56,6.84,8.38.94,1.19,1.87,2.41,2.59,3.74,1.64,3.02.88,5.44-2.22,7.11-1.33.72-2.77,1.23-4.19,1.75-1.93.7-3.88,1.32-5.96,2.01-1.18-1.86-2.19-3.44-3.19-5.03-3.24-5.16-6.72-10.14-11.14-14.36-1.91-1.82-4.09-3.38-6.25-4.9-.71-.5-1.76-.65-2.67-.67-1.53-.05-2.66,2.09-1.81,3.34.41.61.94,1.2,1.55,1.6,9.14,6.17,14.75,15.18,19.56,24.71,1.32,2.61,1.62,5.82,1.98,8.8.47,3.95.65,7.95.77,11.93.21,6.68,1.4,13.19,3.21,19.61.36,1.27.5,2.59.74,3.89,0,0,.14-.1.14-.1Z"/>
  <path class="cls-1" d="M170.19,491.59c-.89-.28-1.36-.28-1.57-.51-5.55-6.26-10.83-12.73-14.66-20.22-8.34-16.32-9.16-33.02-2.17-50.01,2.82-6.86,6.34-13.39,10.49-19.52,5.2-7.69,10.58-15.28,16.15-22.71,6.61-8.8,13.63-17.28,20.24-26.08,5.12-6.82,9.97-13.86,14.77-20.91,3.31-4.87,6.08-10.08,8.1-15.63,3.82-10.45,5.09-20.98.66-31.63-.58-1.39-.99-2.89-1.19-4.38-.17-1.28-.12-2.67.19-3.93.55-2.21,2.89-3.31,4.93-2.33,1.17.56,2.2,1.44,3.25,2.23,1.05.8,1.96,1.82,3.09,2.48,1.75,1.03,4.06-.11,4.33-2.16.19-1.48.24-3.07-.1-4.51-1.93-8.11-5.67-15.26-11.74-21.07-2.64-2.53-5.82-4.23-9.32-5.29-5.8-1.75-10.92-.31-15.23,3.75-4.37,4.12-5.57,9.34-4.37,15.12.22,1.05.85,2.11,1.56,2.94.4.47,1.5.85,2,.63.76-.33,1.69-1.16,1.79-1.89.18-1.26-.18-2.61-.38-3.91-.4-2.55.12-4.91,1.46-7.08,1.45-2.35,3.48-3.89,6.65-4.58.05.97.19,1.66.09,2.3-.46,3.13.37,6.02,1.53,8.86,1.29,3.16,2.7,6.27,3.88,9.47,3.23,8.75,2.64,17.5-.29,26.19-.42,1.25-1,2.47-1.67,3.6-1.71,2.92-3.88,5.19-7.91,4.55-.77,1.83-1.48,3.56-2.22,5.27-2.2,5.1-5.06,9.79-9.11,13.62-1.47,1.39-3.28,2.64-5.16,3.36-2.84,1.09-4.86-.54-4.87-3.59,0-1.64.15-3.29.26-5.41-1.47.66-2.45,1.18-3.48,1.54-2.41.84-4.1-.22-4.42-2.75-.09-.75-.04-1.51-.03-2.27.07-5.18-.82-10.2-2.64-15.04-2.07-5.5-4.31-10.94-6.26-16.48-1.63-4.64-3.36-9.31-4.29-14.11-2.96-15.25,1.66-28.15,13.3-38.33,7.96-6.97,17.48-10.58,28.03-11.14,2.37-.13,4.91.47,7.19,1.27,13.35,4.66,23.67,13.33,31.86,24.69,1.22,1.69,2.24,3.52,3.4,5.25,4.1,6.1,5.26,12.89,4.78,20.08-.84,12.55-3.13,24.8-7.08,36.76-7.87,23.82-19.36,45.69-34.93,65.39-4.94,6.25-9.92,12.47-14.8,18.77-4.3,5.56-8.2,11.38-11.47,17.62-2.74,5.24-4.81,10.71-6.22,16.45-2.28,9.34-1.42,18.49,1.92,27.39,1.28,3.4,1.19,6.38.03,9.84-2.6,7.71-4.65,15.61-6.94,23.43-.42,1.45-.91,2.88-1.44,4.58Z"/>
  <path class="cls-1" d="M503.21,296.07c0,1.98.06,3.3-.01,4.61-.62,11,2.53,20.99,8.13,30.31,3.44,5.73,7.71,10.8,12.61,15.35,1.07.99,2.03,2.08,3.21,3.3-3.58,1.31-6.79,2.34-9.87,3.65-9.53,4.05-17.33,10.58-22.96,19.01-6.79,10.16-16.64,13.79-27.73,15.78-6.23,1.12-12.45.97-18.7-.04-4.03-.65-7.7-2.05-10.92-4.53-4.77-3.67-5.29-8.03-1.51-12.8,1.05-1.33,2.31-2.52,3.61-3.62,5.4-4.6,8.64-10.46,10.45-17.24,2.02-7.56,3.26-15.21,2.95-23.06-.03-.73,0-1.46,0-2.74,1.16.51,1.99.79,2.74,1.22,2.47,1.41,4.86,2.97,7.39,4.25.7.35,1.92.22,2.64-.18,1.06-.58,1.33-1.74.88-2.97-.39-1.07-.75-2.15-1.06-3.25-1.57-5.53-.02-10.18,4.33-13.76,1.87-1.55,4.05-2.93,6.32-3.75,8.88-3.23,17.86-6.22,27.51-9.54Z"/>
  <path class="cls-1" d="M522.39,273.99c.6,0,1.17-.07,1.71.01,2.61.42,4.31-.66,5.54-2.95,4.97-9.24,12.43-16.19,20.84-22.2,2.15-1.53,4.54-2.74,6.88-3.98.79-.42,1.78-.48,2.56-.67,3.21,4.05,5.99,8.11,9.34,11.64,3.24,3.42,6.92,6.49,10.68,9.36,3.9,2.97,8.13,5.51,11.99,8.08-.76,2.39-1.42,4.68-2.21,6.91-.89,2.48-1.66,5.05-2.9,7.36-5.39,10.06-12.99,18.16-22.39,24.57-2.66,1.82-5.4,3.53-8.06,5.35-2.34,1.61-4.7,3.22-6.93,4.98-6.73,5.3-11.87,11.68-13.66,20.34-.29,1.42-.88,2.78-1.47,4.59-1.11-.6-1.96-.93-2.65-1.47-10.61-8.3-18.45-18.79-22.13-31.69-3.97-13.92-1.01-26.66,9.51-37.16,1.07-1.07,2.22-2.05,3.36-3.08Z"/>
  <path class="cls-1" d="M588.19,352.5c-1.3,1.79-2.19,2.99-3.06,4.22-3.21,4.53-5.55,9.48-7.17,14.78-1.41,4.62-2.08,9.27-.52,13.98,1.44,4.32.24,8.25-1.74,12.03-2.32,4.46-5.76,7.99-9.72,11.01-8.14,6.24-17.36,10.02-27.43,11.8-7.17,1.27-14.34,1.39-21.46-.38-3.35-.84-6.47-2.17-9.22-4.29-3.12-2.41-5.18-5.42-5.52-9.78,1.04-.25,1.9-.53,2.78-.65,5.25-.76,9.66-3.33,13.65-6.61,3.36-2.75,5.12-6.61,5.99-10.75.98-4.63,1.49-9.36,2.4-14.01.68-3.52,1.32-7.12,2.6-10.45,1.42-3.68,3.19-7.36,7.73-8.42,1.44-.34,1.87-1.76,2.1-3.12.4-2.43.69-4.87,1.18-7.28,1.32-6.57,4.67-11.92,9.82-16.21,3.77-3.14,7.75-5.93,11.75-8.44,1.55,1.17,1.03,2.37.98,3.39-.47,8.07,2.81,14.46,9.03,19.27,3.58,2.77,7.6,4.98,11.44,7.4,1.26.79,2.58,1.48,4.37,2.5Z"/>
  <path class="cls-1" d="M527.12,356.49c-2.52,5.26-4.31,10.44-5.22,15.89-.53,3.18-.89,6.38-1.34,9.57-.16,1.13-.37,2.24-.55,3.37-1.34,8.2-6.86,12.24-14.3,14.35-.55.16-1.12.21-1.67.35-5.58,1.39-7.94,5.84-5.92,11.27,1.73,4.65,5.06,7.93,9.27,10.4,5.36,3.14,11.28,4.32,17.37,4.86,1.69.15,3.39.18,5.49.29-.27,1.05-.34,1.94-.71,2.68-2.24,4.46-5.3,8.24-9.21,11.41-4.76,3.85-10,6.85-15.49,9.46-7.53,3.58-15.11,7.04-22.66,10.58-2.23,1.04-4.4,2.19-6.76,3.36-2.44-1.57-3.77-4.15-5.47-6.35-3.87-5.01-6.41-10.72-8.25-16.74-1.41-4.61-.25-9.07,1.46-13.3,1.26-3.14,2.91-6.19,4.8-9,5.4-8.02,11.03-15.87,16.53-23.82,2.37-3.43,4.54-6.99,6.98-10.37,5.1-7.06,10.11-14.2,17.03-19.7,4.49-3.57,9.27-6.58,14.71-8.46.71-.24,1.46-.39,2.21-.49.34-.04.71.15,1.71.4Z"/>
  <path class="cls-1" d="M241.88,66.77c5.05,3.25,8.92,7.46,13.73,10.36,4.71,2.83,9.29,5.91,14.16,8.44,5.03,2.61,10.33,4.69,16.22,7.33.4.78,1.18,2.28,1.94,3.78,6.82,13.45,16.36,24.56,28.64,33.32,4.33,3.09,8.93,5.73,13.91,7.67,1.18.46,2.31,1.02,3.73,1.65-1.02,1.58-1.91,2.79-2.62,4.09-1.52,2.8-1.75,5.74-.79,8.8,1.1,3.53,3.24,6.4,5.66,9.1,1.63,1.82,3.22,3.67,4.98,5.68-1.36,1.08-3.35.39-5.06.81-2.02.5-4.11.72-6.07,1.37-1.78.59-3.42,1.6-4.7,2.22-2.52-1.02-4.69-2.1-6.98-2.78-15.86-4.68-30.14-12.36-42.82-22.92-3.33-2.77-6.24-6.08-9.07-9.37-1.31-1.53-2.17-3.55-2.87-5.48-.87-2.39.16-4.18,2.6-4.71,1.84-.4,3.76-.43,5.64-.68.93-.13,1.84-.38,3.07-.65,1.55,1.07,3.26,2.23,4.94,3.42,8.24,5.82,16.92,10.85,26.39,14.39,5.88,2.2,11.91,3.87,18.26,3.87,1.11,0,2.35-.06,3.29-.55.68-.36,1.36-1.49,1.33-2.25-.04-.75-.84-1.64-1.54-2.14-.54-.39-1.44-.41-2.18-.4-7.98.11-15.3-2.39-22.43-5.62-13.97-6.34-26.18-15.24-37.19-25.84-6.03-5.8-11.52-12.07-16.16-19.05-3.48-5.23-6.47-10.72-8.03-16.86-.54-2.15-1.05-4.31,0-6.99Z"/>
  <path class="cls-1" d="M377.45,407.44c22.45-1.05,44.36-3.73,64.4-15.43,6.23,1.81,12.81,2.14,19.48,1.95,6.47-.18,12.59-2.14,19.58-3.78-1.01,1.77-1.54,2.9-2.25,3.9-3.6,5.12-7.33,10.14-10.85,15.32-4.37,6.43-8.51,12.97-11.15,20.39-2.33,6.53-7.41,9.89-14.21,10.59-4.93.5-9.83.23-14.69-.92-19.63-4.65-35.87-14.94-49.55-29.55-.38-.41-.65-.93-.93-1.42-.07-.12.04-.34.16-1.04Z"/>
  <path class="cls-1" d="M626.98,388.36c-1.8-2.16-2.99-3.37-3.92-4.75-9.32-13.79-13.02-28.89-10.38-45.41.91-5.72,3.12-11.01,6.69-15.53,7.21-9.15,10.2-19.71,11.44-31.05.64-5.83,1.78-11.61,2.75-17.41.15-.9.61-1.74,1.01-2.85,2.48,1.28,3.71,3.48,5.36,5.24,2.9,3.09,4.91,6.53,5.79,10.83.76,3.67,2.48,7.14,3.89,10.66,4.17,10.43,5.52,21.2,4.29,32.36-.85,7.72-3.51,14.72-7.87,21.09-1.71,2.5-3.49,4.98-5.44,7.3-5.72,6.82-9.37,14.66-11.77,23.15-.51,1.81-1.04,3.62-1.83,6.37Z"/>
  <path class="cls-1" d="M488.66,248.1c4.8,4.1,9.3,8.15,14.03,11.93,4.7,3.76,9.62,7.23,14.52,10.89-2.45,3.03-4.91,5.67-6.89,8.63-1.99,2.98-3.51,6.27-5.56,10.03-6.49,2.48-13.48,5.35-20.73,7.53-2.72.82-5.47,1.58-8.11,2.63-2.45.98-4.85,2.17-7.12,3.51-5.36,3.17-8.66,7.82-9.58,14.06-.15,1.05-.36,2.09-.55,3.25-11.95-6.38-20.32-21.2-13.14-36.45,1.76-3.73,4.01-7.36,6.64-10.54,9.78-11.82,22.61-19.36,36.49-25.46Z"/>
  <path class="cls-1" d="M619.71,257.51c4.04,2.02,6.79,5.12,9.91,8.13-.11,1.08-.11,2.21-.34,3.29-1.78,8.35-3.22,16.75-4.2,25.24-1.27,11.02-5.07,20.96-13.37,28.8-4.74,4.48-8.6,9.67-11.13,15.68-1.52,3.61-2.47,7.46-3.78,11.5-7.83-3.21-15.64-6.61-21.98-12.48-8.24-7.63-7.11-13.84-4.5-22.28.4-1.29,1.8-2.38,2.94-3.32,5.02-4.12,9.42-8.81,13.26-14.03,4.89-6.66,8.66-13.81,9.28-22.65,1.24.35,2.25.63,3.25.91,3.64,1.02,7.26,2.19,10.94,3,3.25.72,6.41,0,9.35-1.6,2.28-1.23,2.66-2.3,1.49-4.55-2.57-4.97-2.76-10.07-1.13-15.65Z"/>
  <path class="cls-1" d="M430.43,385.09c-4.68,3.66-9.65,4.67-14.79,5.09-4.78.4-9.48-.29-14.08-1.53-14.95-4.01-27.25-12.15-36.97-24.17-1.07-1.32-2.04-2.74-2.97-4.17-3.3-5.09-3.16-6.5,1.81-9.63,10.04-6.33,20.71-8.07,32.02-3.66,2.3.89,4.59,1.8,6.88,2.71,10.19,4.03,20.43,3.41,30.62.09,2.87-.93,5.58-2.35,8.38-3.53,1-.42,2.02-.8,3.14-1.24-.21,6.75-3.27,13.03-8.2,17.61-2.21,2.05-4.47,4.15-6.19,6.59-2.82,3.99-3.11,8.44-1.06,12.95.38.85.82,1.68,1.41,2.88Z"/>
  <path class="cls-1" d="M626.53,89.91c4.36,0,8.71.06,13.07-.01,6.98-.11,13.41-2.15,19.43-5.63,4.1-2.37,8.23-4.69,12.36-6.99.82-.45,1.72-.77,2.61-1.06.81-.26,2.04.79,1.84,1.64-.33,1.47-.7,2.95-1.27,4.34-3.77,9.05-8.97,17.13-16.59,23.42-5.69,4.7-11.64,9.09-17.39,13.73-4.93,3.97-10.6,5.74-16.8,6.1-7.94.46-15.46-1.02-22.33-5.17-2.96-1.79-5.49-4.04-7.34-6.99-3.43-5.47-2.96-11.48,1.46-16.19,4.2-4.49,9.49-6.9,15.62-7.13,5.11-.2,10.23-.04,15.34-.04h0Z"/>
  <path class="cls-1" d="M537.83,426.22c4.44-1.24,8.71-2.16,12.78-3.64,4.07-1.48,8.12-3.22,11.84-5.41,3.72-2.19,7.3-4.8,10.46-7.74,3.13-2.92,5.66-6.49,8.56-9.91,2.27,3.49,3.09,7.4,3.69,11.28,2.52,16.43-2.95,29.78-15.9,40.1-6.61,5.27-14.2,8.64-22.26,11-6.39,1.86-12.95,2.78-19.56,3.32-1.86.15-3.75.02-5.92.02.17-1.2.14-2.15.45-2.96,2.28-5.84,3.78-11.9,4.96-18.04.41-2.11,1.15-3.87,2.42-5.61,2.9-3.96,5.56-8.11,8.47-12.4Z"/>
  <path class="cls-1" d="M475.15,106.31c8.52,11.96,27.55,19.74,40.76,18.34,3,4.87,3.72,7.17,3.83,12.36-4.98.84-9.98,1.88-15.03,2.48-5.77.68-11.31-.73-16.71-2.66-2.86-1.02-5.69-2.1-8.55-3.12-3.1-1.1-6.33-1.4-9.54-.85-1.83.32-3.71.92-5.3,1.86-3.01,1.78-4.03,5.11-2.84,8.41.5,1.39,1.23,2.69,1.99,4.31-6.18,2.68-12.23,5.24-18.33,7.29-9.86-9.02-11.67-22.69-4.43-33.13,6.56-9.46,15.63-14.74,27.15-15.57,2.42-.17,4.87.19,7,.29Z"/>
  <path class="cls-1" d="M606.68,340.44c0,1.28.06,2.54,0,3.79-.69,13.43,2.25,26.04,9.03,37.63,2.07,3.53,2.22,6.71.26,10.14-5.04,8.85-11.56,16.42-19.71,22.55-1.04.78-2.28,1.3-3.47,1.86-.28.13-.72-.07-1.35-.14-.14-.6-.39-1.29-.45-1.99-.65-7.27-2.91-14.06-5.91-20.68-3.65-8.08-4.61-16.33-.78-24.7,2.29-5.01,4.64-9.97,9.35-13.67,2.34.82,4.45,1.83,5.25,4.52.11.36.25.73.45,1.03.72,1.07,1.86,1.53,2.93.98.68-.35,1.41-1.39,1.41-2.13,0-1.88-.31-3.77-.62-5.63-.83-4.9.27-9.37,2.81-13.56.05-.08.36-.01.8-.01Z"/>
  <path class="cls-1" d="M328.61,197.66c-1.21-.08-1.97.02-2.63-.2-11.17-3.66-22.1-7.94-32.04-14.31-3.64-2.34-7.09-5.05-10.31-7.94-1.77-1.59-3.03-3.84-4.22-5.96-.91-1.61-.47-3.36.88-4.69,1.96-1.93,4.45-2.91,7.11-3.19,1.01-.11,2.16.51,3.16.99,2.55,1.25,5.01,2.66,7.56,3.91,6.81,3.35,13.81,6.18,21.2,7.98.89.22,1.75.58,2.48.83.15.62.39,1.01.3,1.3-1.69,5.52-.02,10.45,2.67,15.18,1.1,1.94,2.37,3.78,3.84,6.1Z"/>
  <path class="cls-1" d="M334.5,206.2c-6.13,3.73-9.43,8.55-9.65,14.93-1.86,1.29-3.61.76-5.2.45-9.09-1.74-17.34-5.37-24.43-11.4-2.18-1.85-4.11-3.94-5.33-6.58-1.48-3.21-.48-5.58,2.92-6.6,1.25-.38,2.61-.54,3.92-.57,5.91-.13,11.7.49,17.34,2.44,6.08,2.1,12.23,4.01,18.34,6.03.5.16.92.56,2.1,1.3Z"/>
  <path class="cls-1" d="M434.64,181.4c-3.54-.57-7.11-.99-10.61-1.75-2.28-.49-4.33-1.68-4.71-4.32-.27-1.9,1.68-3.79,5.15-4.4,7.65-1.35,14.3-4.73,20.67-9.04,4.08-2.76,8.54-4.93,13.53-5.72,2.27-.36,4.52-.51,6.73.35,2.08.82,3.02,2.24,2.51,4.46-.33,1.45-.87,2.93-1.66,4.19-3.19,5.08-7.39,9.16-12.84,11.75-5.9,2.8-12.13,4.31-18.77,4.48Z"/>
  <path class="cls-1" d="M356.65,265.87c-.97,2.78-1.87,5.65-3.01,8.41-.31.74-1.3,1.5-2.11,1.7-8.75,2.11-17.6,3.08-26.5,1.17-2.35-.51-4.69-1.59-6.73-2.9-2.86-1.84-3.42-4.42-1.85-7.43,2.66-5.12,7.12-8.36,12.23-10.62,2.2-.97,4.81.06,6.38,1.52,5.82,5.38,12.91,6.91,20.4,7.54.33.03.64.32,1.18.61Z"/>
  <path class="cls-1" d="M331.9,250.77c-9.49-2.62-18.33-5.88-26.43-10.9-2.07-1.28-3.94-2.92-5.8-4.51-1.15-.99-2.02-2.25-1.95-3.89.65-1.59,2.03-2.33,3.49-2.68,2.56-.62,5.17-1.3,7.78-1.39,5.66-.21,11.33-.06,17.03-.06,1.99,2.28,3.79,4.72,5.98,6.73,2.19,1.99,4.78,3.54,7.43,5.45-3.77,3.04-5.73,7.08-7.53,11.26Z"/>
  <path class="cls-1" d="M362.25,297.91c-.71.58-1.33,1.33-2.13,1.7-5.91,2.72-12.08,4.46-18.64,4.03-2.22-.14-4.51-.69-6.55-1.56-3.04-1.29-3.95-3.97-2.67-7.03.58-1.37,1.31-2.76,2.29-3.87,4.75-5.35,10.22-9.45,17.94-9.61,1.15,3.01,1.91,6.19,3.51,8.88,1.59,2.68,4.02,4.85,6.25,7.46Z"/>
  <path class="cls-1" d="M511.4,119.05c-1.77,0-3.27.24-4.66-.04-7.47-1.52-14.38-4.41-20.59-8.89-.76-.55-1.51-1.15-2.14-1.83-.81-.88-1.04-1.94-.62-3.14,1.14-3.25,4.29-5.18,8.1-4.74,1.29.15,2.64.47,3.79,1.05,6.56,3.31,11.72,8.14,15.3,14.59.43.77.49,1.75.82,3Z"/>
  <path class="cls-1" d="M652.64,283.1c.18.26.37.51.52.78.02.03-.18.18-.28.27-.04-.38-.08-.76-.11-1.14,0,0-.14.09-.14.09Z"/>
</svg>