<?xml version="1.0" encoding="UTF-8"?>
<svg id="Livello_1" data-name="Livello 1" xmlns="http://www.w3.org/2000/svg" viewBox="0 0 841.89 841.89">
  <defs>
    <style>
      .cls-1 {
        fill: #231f20;
      }
    </style>
  </defs>
  <path class="cls-1" d="M324.95,476.69v.05h.01v-.04h-.01ZM400.55,512.34c-1.95-4.5-4.62-8.49-7.98-12-3.36-3.52-7.18-6.11-11.5-7.83,3.68-1.85,6.9-4.31,9.7-7.34,2.8-3.04,5.04-6.55,6.75-10.51,1.71-3.98,2.56-8.14,2.56-12.5,0-7.4-1.66-13.83-4.94-19.24-3.28-5.42-7.64-9.67-13.01-12.7-5.38-3.04-11.36-4.56-17.96-4.56h-60.98c-.96,0-1.89.14-2.77.4l20.53,20.53c.4.36,2,1.81,4.39,4.05.44.4,1.61,1.33,2.53,2.04.8.62,1.78.95,2.78.95h24.21c2.53,0,4.79.59,6.75,1.78,1.95,1.19,3.51,2.82,4.65,4.86,1.13,2.04,1.7,4.4,1.7,7.04,0,2.38-.57,4.62-1.7,6.75-1.14,2.12-2.72,3.82-4.75,5.15-2.04,1.34-4.24,1.99-6.65,1.99h-24.23c-1.04,0-2.04.35-2.85,1-1.24,1-2.89,2.35-3,2.46-2.49,2.32-4,3.69-4,3.69l-2.98-2.98s1.56-1.71,4.16-4.5c.54-.58,1.39-1.66,2.07-2.55.6-.79.93-1.75.93-2.75l.05-16.27c0-1.02-.34-2.01-.97-2.81-.85-1.08-1.94-2.46-2.01-2.53-2.22-2.38-3.68-3.97-4.06-4.39l-.03-.03-21.34-21.34c-2.19,1.94-3.57,4.84-3.57,8.07v128.24h0l24.77-23.41.09-.09c.35-.39,1.82-1.99,4.07-4.4.16-.18,1.21-1.49,2.02-2.53.63-.8.97-1.78.97-2.8v-18.04c0-1.02-.34-2.01-.97-2.81-.84-1.06-1.92-2.42-2.02-2.53-2.6-2.78-4.16-4.49-4.16-4.49l2.98-2.98s4.33,4,4.5,4.16c.58.54,1.66,1.39,2.55,2.06.79.6,1.76.93,2.75.93h27.51c2.79,0,5.19.63,7.22,1.88,2.04,1.25,3.65,3.02,4.85,5.26,1.2,2.25,1.79,4.76,1.79,7.54,0,2.63-.59,5.09-1.79,7.33-1.2,2.25-2.81,4.04-4.85,5.36-2.03,1.33-4.43,1.99-7.22,1.99h-27.48c-1.01,0-1.99.34-2.79.96-.94.73-2.09,1.63-2.13,1.67-.14.11-4.17,3.83-4.82,4.42l.02.02-21.71,20.5h67.08c6.97,0,13.24-1.55,18.81-4.66,5.57-3.12,10.03-7.5,13.39-13.19,3.36-5.7,5.04-12.25,5.04-19.64,0-5.29-.99-10.18-2.95-14.68h0ZM324.95,476.69v.05h.01v-.04h-.01Z"/>
  <path class="cls-1" d="M106.62,298.46v4.21s2.31.11,6.12.24c.87.03,2.4.22,3.55.38.84.12,1.46.83,1.46,1.68v67.35c0,3.31,1.18,6.12,3.52,8.39,2.35,2.27,5.09,3.41,8.28,3.41h31.15v29.18h-32.82c-8.83,0-16.57-1.98-23.26-5.9-6.69-3.94-11.91-9.22-15.63-15.83-3.71-6.63-5.58-14.07-5.58-22.35v-64.25c0-.85.62-1.57,1.46-1.68,1.14-.16,2.68-.35,3.55-.38,3.81-.13,6.12-.24,6.12-.24v-4.21s-2.31-.11-6.12-.24c-1.5-.06-5.01-.59-5.01-.59h-39.29v-29.16h116.58v29.16h-42.95s-3.51.53-5.01.59c-3.81.13-6.12.24-6.12.24Z"/>
  <path class="cls-1" d="M686.85,290.02v122.97h-34.65l.02-68.21s-14.03-40.18-14.41-44.15c-.26-2.76-.39-9.43-.39-9.43h-4.41s-.11,6.67-.37,9.43c-.4,3.97-14.31,44.15-14.31,44.15l-.1,22.09c-.42,8.67-2.69,16.29-6.84,22.85-4.6,7.29-10.84,13.01-18.72,17.11-1.76.93-5.07,2.27-8.77,3.46-4.12,1.33-10.58,2.05-14.26,2.17-3.68-.12-10.14-.84-14.26-2.17-3.7-1.19-7.01-2.53-8.77-3.46-7.88-4.1-14.12-9.82-18.72-17.11-4.15-6.56-6.42-14.18-6.84-22.85l-.1-22.09s-13.91-40.18-14.31-44.15c-.26-2.76-.37-9.43-.37-9.43h-4.41s-.13,6.67-.39,9.43c-.38,3.97-14.41,44.15-14.41,44.15l.02,68.21h-34.64v-122.97c-.01-11.73,9.77-21.21,21.81-21.21h59.31c12.04,0,21.82,9.48,21.82,21.21v57.62s10.67,31.95,11.69,37.83c.47,2.72.37,11.43.37,11.43h4.41s-.1-8.71.37-11.43c1.02-5.88,11.68-37.83,11.68-37.83v-57.62c0-11.73,9.78-21.21,21.82-21.21h59.31c12.04,0,21.82,9.48,21.82,21.21Z"/>
  <path class="cls-1" d="M401.99,277.22c-.17-.51-.37-1.02-.61-1.5-.84-1.83-2.11-3.39-3.66-4.58-.11-.09-.2-.16-.31-.24-2.13-1.54-4.69-2.42-7.44-2.42h-18.34s.11,22.28.24,26.09c.06,1.5.2,3,.42,4.49l.17.52.55,1.69,15.78,49.91.21.67c.16.52.41,1,.74,1.43.62.81,1.34,1.71,1.82,2.22,2.6,2.79,4.16,4.5,4.16,4.5l-2.98,2.98s-1.71-1.56-4.5-4.16c-.29-.27-.71-.62-1.16-.98-.81-.65-1.82-1.01-2.86-1.01h-29.39c-1.04,0-2.05.36-2.86,1.01-.45.36-.87.71-1.16.98-2.79,2.6-4.5,4.16-4.5,4.16l-2.97-2.98s1.55-1.71,4.15-4.5c.49-.51,1.21-1.42,1.84-2.24.32-.41.56-.88.72-1.39l.22-.68,15.78-49.92.54-1.69.17-.52c.22-1.49.37-2.99.42-4.49.13-3.81.24-26.09.24-26.09h-18.34c-2.75,0-5.31.88-7.43,2.42-.11.08-.21.15-.32.24-1.55,1.19-2.82,2.75-3.66,4.58-.24.48-.44.99-.6,1.5l-44.04,136.09h37.44l6.96-21.34.46-1.4c.49-1.5.16-3.16-.87-4.36-.16-.19-.3-.35-.43-.49-2.6-2.79-4.15-4.5-4.15-4.5l2.97-2.98s1.71,1.56,4.5,4.16c.58.54,1.65,1.38,2.54,2.05.79.61,1.76.94,2.75.94h48.66c.99,0,1.96-.33,2.75-.94.89-.67,1.96-1.51,2.54-2.05,2.79-2.6,4.5-4.16,4.5-4.16l2.98,2.98s-1.56,1.71-4.16,4.5c-.13.14-.28.3-.43.49-1.03,1.2-1.36,2.85-.87,4.36l.45,1.39,6.96,21.35h37.44l-44.03-136.09Z"/>
  <path class="cls-1" d="M502.14,434.04c-.16-.49-.35-.97-.58-1.43-.81-1.76-2.02-3.25-3.51-4.4-.11-.08-.19-.15-.3-.23-2.04-1.47-4.49-2.32-7.13-2.32h-17.58s.1,21.36.23,25.02c.06,1.43.19,2.87.4,4.3l.16.5.53,1.62,15.13,47.85.2.64c.15.5.39.96.71,1.37.6.78,1.28,1.64,1.74,2.13,2.5,2.67,3.99,4.31,3.99,4.31l-2.85,2.86s-1.64-1.5-4.32-3.99c-.28-.26-.68-.59-1.11-.94-.78-.62-1.74-.97-2.74-.97h-28.18c-1,0-1.96.35-2.74.97-.43.35-.83.68-1.11.94-2.68,2.49-4.32,3.99-4.32,3.99l-2.84-2.86s1.48-1.64,3.98-4.31c.46-.49,1.15-1.36,1.76-2.15.3-.4.54-.85.69-1.33l.21-.65,15.13-47.86.52-1.62.16-.5c.21-1.43.35-2.87.4-4.3.02-.57.06-25.02.06-25.02h-17.41c-2.64,0-5.09.85-7.12,2.32-.11.08-.2.15-.31.23-1.49,1.15-2.7,2.64-3.51,4.4-.23.46-.42.94-.57,1.43l-42.22,130.47h35.89l6.67-20.46.44-1.34c.47-1.44.15-3.03-.83-4.18-.15-.18-.29-.34-.41-.47-2.5-2.68-3.98-4.31-3.98-4.31l2.85-2.86s1.63,1.49,4.31,3.99c.56.51,1.58,1.32,2.43,1.97.76.58,1.69.89,2.64.89h46.65c.95,0,1.88-.31,2.64-.89.85-.65,1.87-1.46,2.43-1.97,2.68-2.5,4.32-3.99,4.32-3.99l2.85,2.86s-1.49,1.63-3.99,4.31c-.12.13-.26.29-.41.47-.98,1.15-1.31,2.74-.84,4.18l.44,1.33,6.67,20.47h35.89l-42.21-130.47h0Z"/>
  <path class="cls-1" d="M102.32,564.5c-11.24,0-21.23-2.38-29.98-7.13s-15.64-11.55-20.67-20.38c-5.02-8.83-7.54-19.36-7.54-31.59v-79.74h32.31v81.78c0,5.03,1.09,9.72,3.25,14.06,2.15,4.35,5.19,7.78,9.11,10.29,3.92,2.52,8.49,3.77,13.71,3.77s9.76-1.25,13.62-3.77c3.85-2.51,6.86-5.91,9.01-10.19s3.23-9,3.23-14.16v-81.78h32.31v79.74c.01,12.23-2.47,22.76-7.43,31.59-4.97,8.83-11.82,15.63-20.57,20.38s-18.88,7.13-30.37,7.13h0Z"/>
  <path class="cls-1" d="M324.95,476.69v.05h.01v-.04h-.01ZM324.95,476.69v.05h.01v-.04h-.01ZM324.95,476.69v.05h.01v-.04h-.01ZM324.95,476.69v.05h.01v-.04h-.01ZM324.95,476.69v.05h.01v-.04h-.01ZM324.95,476.69v.05h.01v-.04h-.01ZM324.95,476.69v.05h.01v-.04h-.01ZM324.95,476.69v.05h.01v-.04h-.01ZM324.95,476.69v.05h.01v-.04h-.01ZM324.95,476.69v.05h.01v-.04h-.01ZM324.95,476.69v.05h.01v-.04h-.01ZM324.95,476.69v.05h.01v-.04h-.01Z"/>
  <path class="cls-1" d="M279.51,384.54c-1.52,0-2.74-.26-3.63-.83-.88-.56-1.69-1.3-2.38-2.27l-11.58-19.65c7.3-4.41,13.14-10.35,17.48-17.8,4.35-7.44,6.51-15.71,6.51-24.82,0-10.06-2.42-18.88-7.23-26.47-4.82-7.6-11.24-13.51-19.24-17.79-8-4.29-16.9-6.41-26.68-6.41h-48.93c-2.56,0-4.98.55-7.16,1.55l20.47,20.47s1.71,1.55,4.5,4.15c.1.1,1.49,1.19,2.55,2.03.79.62,1.76.96,2.77.96h21.86c4,0,7.7.83,11.07,2.48,3.37,1.66,6.11,4.1,8.17,7.35,2.07,3.25,3.1,7.14,3.1,11.68s-.99,8.28-3,11.59c-2,3.3-4.69,5.83-8.06,7.55-3.38,1.72-7.13,2.58-11.28,2.58h-21.9c-.99,0-1.96.33-2.75.93-.88.68-1.95,1.52-2.53,2.06-2.79,2.6-4.5,4.16-4.5,4.16l-2.98-2.98s1.56-1.71,4.16-4.5c.55-.58,1.39-1.66,2.07-2.54.6-.79.92-1.75.92-2.74v-31.96c0-1.02-.34-2-.97-2.8-.81-1.04-1.86-2.35-2.02-2.53-2.6-2.78-4.16-4.5-4.16-4.5l-21.16-21.16c-3.93,3.16-6.44,8-6.44,13.44v127.53h34.75v-38.13c0-.99-.32-1.95-.92-2.74-.68-.89-1.52-1.96-2.07-2.54-2.6-2.79-4.16-4.5-4.16-4.5l2.98-2.98s1.71,1.56,4.5,4.16c.58.54,1.65,1.38,2.53,2.05.79.61,1.76.94,2.76.94h20.65l5.07,9.08,10.44,18.52c2.91,4.82,6.89,8.73,12.01,11.69,5.11,2.95,10.76,4.45,16.96,4.45h15.03v-28.75h-7.58,0Z"/>
  <path class="cls-1" d="M274.98,536.92c-1.45,0-2.62-.25-3.48-.8-.84-.54-1.62-1.24-2.28-2.17l-11.1-18.85c7-4.22,12.6-9.92,16.76-17.06,4.17-7.14,6.24-15.07,6.24-23.8,0-9.65-2.32-18.1-6.93-25.38-4.62-7.29-10.78-12.96-18.45-17.06-7.67-4.11-16.2-6.15-25.58-6.15h-46.92c-2.44,0-4.75.53-6.84,1.48l19.71,19.72.2.19c.58.53,2.01,1.83,4.01,3.71.1.09,1.43,1.14,2.45,1.95.75.59,1.69.91,2.65.91h20.96c3.84,0,7.38.8,10.62,2.38,3.23,1.59,5.85,3.93,7.83,7.05,1.98,3.12,2.97,6.85,2.97,11.2s-.95,7.94-2.87,11.11-4.5,5.59-7.73,7.24c-3.24,1.65-6.84,2.47-10.82,2.47h-20.99c-.96,0-1.89.32-2.64.9-.85.65-1.87,1.46-2.43,1.97-2.67,2.49-4.31,3.99-4.31,3.99l-2.86-2.86s1.49-1.64,3.99-4.31c.52-.56,1.33-1.59,1.98-2.44.57-.75.88-1.67.88-2.62v-30.65c0-.98-.32-1.92-.92-2.68-.78-1-1.79-2.26-1.94-2.43-1.24-1.33-2.23-2.39-2.92-3.14l-.06.06-21.43-21.43c-3.69,3.04-6.05,7.64-6.05,12.79v122.28h33.32v-36.55c0-.96-.31-1.88-.88-2.63-.65-.85-1.46-1.89-1.98-2.44-2.5-2.67-3.99-4.31-3.99-4.31l2.86-2.86s1.64,1.49,4.31,3.99c.56.51,1.58,1.32,2.43,1.97.75.58,1.68.89,2.64.89h19.8l4.86,8.71,10.01,17.76c2.79,4.62,6.61,8.37,11.52,11.21,4.9,2.83,10.32,4.26,16.26,4.26l19.25.02v-27.58h-12.11,0Z"/>
  <polyline class="cls-1" points="324.96 476.73 324.95 476.74 324.95 476.69 324.96 476.7"/>
  <path class="cls-1" d="M686.03,554.27c0,5.66-4.36,10.24-9.74,10.24h-32.51c-20.65,0-39.4-17.62-39.4-39.35v-43.33h-.04v-.08s-6.13-20.18-7.67-30.8c-.13-.83-.23-1.57-.29-2.26-.2-2.34-.29-7.98-.29-7.98h-4.36s-.07,5.64-.29,7.98c-.06.67-.14,1.41-.28,2.2-1.49,10.11-7.19,28.94-7.74,30.72-.02.1-.04.14-.04.14v.08h.04v82.68h-34.65l.02-126.37c0-6.89,5.3-12.48,11.85-12.48h57.69c6.76,0,12.25,5.49,12.25,12.25v72.38h.02c.32,1.07,6.35,20.9,7.78,31.15h.02c.08.67.16,1.3.22,1.89.21,2.34.3,7.98.3,7.98h4.34s.09-5.64.29-7.98c.06-.63.15-1.3.25-2.03,1.49-10.28,7.41-29.94,7.73-31.01v-84.64h34.49l.02,128.61h-.01Z"/>
  <path class="cls-1" d="M693.3,310.03v1.08c-.01-.17-.01-.35-.01-.52,0-.19,0-.38.01-.56Z"/>
  <path class="cls-1" d="M693.3,370.23v1.65c0-.36-.01-.73-.01-1.09,0-.19,0-.38.01-.56Z"/>
  <path class="cls-1" d="M723.75,290.61l-2.98,2.98s1.56,1.71,4.16,4.5c.55.58,1.39,1.65,2.06,2.54.6.79.93,1.75.93,2.75v17.86c0,2.46,1.99,4.46,4.46,4.46h58.35v29.17h-58.35c-2.46,0-4.46,1.99-4.46,4.46v19.94c0,1-.33,1.97-.93,2.76s-1.33,1.69-1.81,2.2c-2.6,2.79-4.16,4.5-4.16,4.5l2.98,2.98s1.71-1.56,4.5-4.16c.5-.47,1.61-1.34,2.67-2.14.79-.61,1.76-.94,2.76-.94h63.84v29.17h-92.63c-6.55,0-11.85-5.58-11.85-12.47v-28.19h.05c-.02-.36-.03-.72-.04-1.08v-1.65c.07-5.86,1.38-11.35,3.93-16.51,2.61-5.3,6.27-9.89,10.96-13.75-4.28-3.73-8.35-8.17-10.96-13.35-2.55-5.01-3.86-10.17-3.93-15.51v-1.08c0-.19,0-.38.01-.56h-.02v-28.21c0-6.89,5.3-12.48,11.85-12.48h92.63v28.96h-64.24c-1.01,0-1.99-.34-2.78-.95-.96-.75-1.99-1.56-2.5-2.04-2.79-2.6-4.5-4.16-4.5-4.16Z"/>
  <path class="cls-1" d="M722.49,446.57l-2.86,2.86s1.5,1.64,3.99,4.31c.52.55,1.33,1.58,1.98,2.43.58.76.89,1.68.89,2.63v17.12c0,2.36,1.91,4.27,4.27,4.27h60.26v27.97h-60.26c-2.36,0-4.27,1.9-4.27,4.26v19.11c0,.96-.31,1.89-.9,2.65s-1.27,1.62-1.73,2.11c-2.49,2.67-3.99,4.31-3.99,4.31l2.86,2.86s1.64-1.5,4.31-3.99c.48-.45,1.55-1.28,2.56-2.06.76-.58,1.69-.9,2.65-.9h65.52v27.97h-93.12c-6.28,0-11.36-5.36-11.36-11.96v-27.03h.05c-.02-.35-.03-.69-.04-1.04v-1.58c.07-5.62,1.32-10.88,3.77-15.83,2.5-5.08,6.01-9.48,10.51-13.18-4.1-3.58-8.01-7.83-10.51-12.8-2.44-4.8-3.7-9.75-3.77-14.87v-1.58h-.02v-27.03c0-6.61,5.08-11.96,11.36-11.96h93.12v27.77h-65.9c-.97,0-1.9-.33-2.67-.92-.92-.72-1.91-1.5-2.4-1.95-2.67-2.49-4.31-3.99-4.31-3.99v.04Z"/>
  <path class="cls-1" d="M693.31,309.47c-.01.18-.01.37-.01.56v-.56h.01Z"/>
  <path class="cls-1" d="M693.34,372.96h-.04v-1.08c.01.36.02.72.04,1.08Z"/>
</svg>