<?xml version="1.0" encoding="UTF-8"?>
<svg id="Livello_1" data-name="Livello 1" xmlns="http://www.w3.org/2000/svg" viewBox="0 0 841.89 841.89">
  <defs>
    <style>
      .cls-1 {
        fill: #1b8741;
      }
    </style>
  </defs>
  <path class="cls-1" d="M481.13,454.01c1.84-1.15,3.56-2.6,5.54-3.41,13.57-5.51,16.05-16.29,5.64-26.66-3.8-3.78-8.42-6.89-13.05-9.66-5.67-3.39-11.69-6.22-17.68-9.05-3.19-1.51-6.67-1.79-8.16,2.34-1.43,3.96.63,6.21,4.38,7.93,7.86,3.61,15.55,7.62,23.18,11.71,2.01,1.08,3.84,2.86,5.18,4.72,1.17,1.61,2.68,4.79,2.03,5.55-1.58,1.84-4.32,3.64-6.61,3.67-3.34.04-5.76.44-6.79,3.81-3.99,12.98-16.41,17.33-29.43,14.59-9.1-1.91-16.79-6.34-23.59-12.65-1.22-1.14-3.69-1.34-5.56-1.28-2.84.08-6.26,2-8.38.97-6.13-2.97-9.67,0-14.17,3.5-9.62,7.5-20.6,12.15-33.15,9.86-7.95-1.45-13.86-6.12-16.49-14.1-1.11-3.38-2.87-4.84-6.75-4.73-2.32.06-5.51-1.42-6.76-3.26-.77-1.14.72-5.25,2.32-6.31,8.09-5.34,16.54-10.14,24.92-15.04,1.54-.9,4.04-.9,4.86-2.14,1.3-1.97,2.34-4.77,1.95-6.95-.23-1.26-4.06-3.29-5.26-2.74-13.39,6.05-27.84,10.81-36.65,23.7-5.94,8.7-2.52,17.33,7.84,21.8,2.43,1.05,4.69,2.5,7.94,4.26-23.62,7.8-31.94,25.7-36.88,46.14-.76,3.15-1.25,6.44-1.25,9.67,0,8.88-2.35,16.75-7.07,24.47-5.73,9.36-10.55,19.43-10.17,30.94.06,1.79.9,4.96,1.67,5.05,1.9.22,4.5-.41,5.87-1.7,2.59-2.45,4.94-5.36,6.64-8.49,7.68-14.12,13-28.74,11.94-45.39-1.1-17.22,5.71-31.84,17.83-43.92,2.44-2.43,5.75-4,9.57-6.59-.33,6.88,2.74,10.4,7.59,11.66,7.29,1.9,14.74,3.6,22.22,4.32,10.65,1.02,21.38,1.05,32.08,1.55,1.95.09,3.9.45,5.9.69,0,11.11.04,21.78,0,32.46-.06,14.88-.07,29.76-.39,44.63-.05,2.42-1.06,5.24-2.57,7.11-4.28,5.32-5.14,10.57-2.67,17.11,4.18,11.09,5.62,22.65,4.72,34.6-1.21,15.92-3.77,31.5-8.61,46.74-1.48,4.67-4.09,8.13-8.45,9.93-9.65,3.99-19.36,7.89-29.22,11.32-2.91,1.01-6.45.76-9.62.39-13.99-1.63-25.37,3.04-34,13.98-5.9,7.48-7.62,16.08-3.95,25.05,3.8,9.28,11.58,13.24,21.14,14.83,8.17,1.36,16.31,3.13,24.3,5.29,3.2.86,6.21,2.96,8.91,5.01,4.18,3.19,6.35,7.38,4.47,12.86-1.17,3.42.39,6.31,3.48,6.67,1.81.22,5.09-2.06,5.79-3.93,3.14-8.34.52-15.61-5.62-21.75-7.1-7.11-16.16-10.05-25.71-11.83-4.63-.86-9.34-1.26-13.99-2.03-8.61-1.42-13.61-5.54-14.49-11.74-.99-6.98,3.5-15.99,10.36-18.75,4.6-1.85,9.99-3.7,14.66-3.01,13.6,2,25.18-3.21,37-8.19,2.76-1.16,5.54-2.26,9.02-3.68-1.01,10.86-6.77,18.27-13.13,25.34-1.2,1.34-2.79,2.31-4.1,3.56-7.1,6.76-6.95,13.93.45,20.42,3.54,3.1,7.18,6.1,10.77,9.15,7.61,6.47,8.13,19.51,1.23,26.85-5.65,6.02-11.21,12.13-16.61,18.38-1.35,1.56-1.99,3.75-2.87,5.7-1.78,3.94-3.09,8.15-5.31,11.82-6.41,10.62-10.84,11.49-22.84,9.15-9.29-1.82-19.02-1.92-28.55-1.91-9.78.01-19.56,1.3-29.35,1.56-3.11.08-6.48-.85-9.35-2.16-7.66-3.47-9.34-8.74-4.82-15.73,2.41-3.72,2.67-7.22,1.7-11.27-1.5-6.28,2.1-13.76,8.34-15.46,6.34-1.73,13.1-1.91,19.57-3.26,4.09-.85,8.75-1.67,11.84-4.14,6.36-5.08,5.03-11.44-2.49-14.56-12-4.96-22.16-12.24-29.87-22.76-18.87-25.75-9.45-58.69,20.16-70.84,10.24-4.2,18.22-11.24,23.79-20.7,1.86-3.15,2.95-7.08,3.16-10.73.1-1.69-2.46-4.39-4.35-5.02-1.2-.4-4.64,1.93-4.94,3.45-2.27,11.74-10.36,18.59-20.14,23.34-24.97,12.14-34.33,24.45-37.72,50.33-7.17,5.05-14.39,8.83-19.79,14.39-4.01,4.12-6.92,10.29-8.04,16-2.01,10.18,8.47,17.06,20.75,13.64,6.16-1.71,11.83-5.17,18.17-8.04,7.54,5.47,7.98,8.98,1.35,16.54-11.7,13.34-32.7,14.39-44.37,1.22-8.03-9.08-9.13-20.41-5.88-32.16,4.04-14.57,12.75-25.29,25.91-32.55,2.9-1.6,5.38-3.63,3.31-7.32-2.17-3.88-5.32-2.86-8.43-1.17-18.52,10.08-27.38,26.57-30.92,46.57-.22,1.22-.29,2.47-.42,3.66-14.65,1-28.13-7.34-33.17-22.06-3.89-11.35-5.93-23.33-8.92-34.99-3.73-14.56-8.86-28.48-17.1-41.28-7.46-11.61-7.7-23.71-.32-35.84,8.29-13.62,20.23-22.97,33.96-30.51,3.19-1.75,5.77-4.61,8.92-7.2,2.4,2.6,5.97,6.27,9.31,10.14,4.99,5.76,6.12,12.24,2.66,19.16-2.75,5.5-6.06,10.73-8.68,16.28-5.85,12.39-11.86,24.73-16.95,37.44-3.29,8.19-1.39,15.94,3.93,23.5,4.72,6.73,7.68,14.69,11.42,22.11.97,1.94,1.5,4.44,3.05,5.65,1.69,1.32,4.87,2.53,6.38,1.77,1.41-.71,2.66-4.61,1.94-6.18-4.5-9.85-9.01-19.77-14.65-28.99-3.26-5.33-4.73-10.39-2.45-15.81,4.76-11.3,10.02-22.39,15.35-33.44,2.98-6.19,6.84-11.96,9.72-18.18,5.08-10.96,4.26-22.24-4.81-30.01-10.56-9.05-10.09-19.56-7.13-30.53,2.94-10.87,7.6-21.27,12.28-31.78,2.89,12.72,9.44,22.23,19.19,30.42,12.12,10.18,12.6,24.45,2.6,36.66-1.72,2.1-3.66,4.04-5.43,6.1-4.99,5.81-7.1,12.39-7.87,20.2-1.99,20.4,5.48,36.4,20.27,49.73,1.87,1.69,3.41,3.76,5.01,5.72,2.2,2.71,4.9,3.34,7.57,1.21,2.53-2.02,2.4-4.78.3-7.18-3.58-4.09-7.29-8.08-10.95-12.11-10.28-11.35-16.35-24.23-11.95-39.68,1.57-5.49,4.87-11.04,8.82-15.22,15.32-16.21,14.6-38.7-2.34-53.31-6.91-5.96-14.51-11.84-14.97-21.76-.52-11.39,2.09-22.85,8.55-32.02,9.03-12.81,19.95-24.29,30.06-36.34.41.28.83.57,1.24.85-1.22,7.11-2.8,14.18-3.59,21.34-1.42,12.84,1.14,24.85,8.87,35.5,2.77,3.81,5.58,7.6,8.18,11.53,5.11,7.74,6.63,15.71,2.41,24.59-6.6,13.88-12.65,28.01-19.04,41.98-9.37,20.49-9.46,41.07.02,61.4,2.63,5.63,6.94,10.55,10.96,15.4.98,1.18,4.32,1.62,5.74.86,1.35-.72,2.4-3.59,2.14-5.3-.32-2.15-1.74-4.43-3.3-6.07-12.28-12.92-13.84-28.73-11.65-45.15.87-6.47,3.63-12.81,6.23-18.91,5.89-13.8,12.25-27.41,18.35-41.12,5.47-12.29,3.02-23.66-4.22-34.41-5.12-7.6-12-14.12-13.75-23.74-3.56-19.6,1.11-37.4,11.93-53.7,2.31-3.48,5.9-6.38,9.43-8.76,19.85-13.39,41.1-24.25,64.91-27.78,14.92-2.21,30.32-1.3,45.51-1.63,6.7-.15,13.41.2,20.12.13,9.24-.1,18.5-.77,27.73-.53,27.63.72,51.93,11.46,75.48,24.93,16.99,9.72,25.19,24.56,28.62,43.01,3.08,16.59.36,31.24-11.1,44.53-10.64,12.34-13.01,26.49-5.32,41.89,6.78,13.58,13.27,27.38,18.76,41.52,8.05,20.72,8.18,40.96-7.03,59.19-1.6,1.91-3.26,4.17-3.72,6.49-.34,1.68.81,4.84,2.1,5.36,1.68.68,4.96.14,6.17-1.16,22.05-23.71,20.97-56.63,9.8-78.33-6.2-12.04-10.83-24.88-16.99-36.94-6.36-12.47-3.21-22.9,4.61-33.2,3.8-5.01,7.74-10.2,10.15-15.93,5.63-13.4,4.43-27.27.92-41.05-.52-2.05-1.14-4.08-1.22-6.37,16.07,17.19,35.05,32.1,39.3,57.59,1.97,11.86-1.16,20.68-9.99,28.53-5.18,4.61-10.22,9.94-13.56,15.94-7.24,13.02-5.37,28.89,5.6,38.96,17.21,15.78,13.74,41.04-1.62,56.62-3.69,3.74-7.18,7.69-10.63,11.66-2.25,2.59-3.26,5.59,0,8.03,2.83,2.11,5.37.95,7.55-1.6,8.2-9.6,17.72-18.08,22.77-30.21,5.55-13.34,5.07-35.92-7.58-47.6-16.24-14.99-12.06-32.29,3.16-43.9,8.87-6.76,13.59-15.72,15.67-27.22,8.91,15.65,15.48,31.1,14.38,48.7-.17,2.77-1.97,5.59-3.52,8.08-1.22,1.96-3.28,3.37-4.83,5.14-7.66,8.79-10.52,18.66-5.34,29.59,3.87,8.16,8.84,15.8,12.72,23.96,4.71,9.92,8.98,20.08,13.06,30.28,1.94,4.83.26,9.15-2.42,13.74-5.56,9.49-10.36,19.44-14.93,29.44-.74,1.61,1.35,4.51,2.13,6.82,2.25-.97,5.47-1.32,6.57-3.04,2.61-4.07,4.1-8.83,6.26-13.21,2.15-4.37,3.93-9.15,6.99-12.81,7-8.36,7.89-17.6,4.06-26.99-4.83-11.85-10.69-23.29-16.31-34.82-2.61-5.36-5.83-10.43-8.51-15.76-3.89-7.72-2.43-14.71,3.43-20.92,3.09-3.28,6.16-6.59,8.47-9.05,3.18,2.61,5.95,5.66,9.36,7.55,13.56,7.52,25.31,16.84,33.46,30.3,6.94,11.47,7.3,23.21.33,34.42-12.05,19.39-18.21,40.59-21.96,62.83-1.06,6.29-3.44,12.55-6.25,18.31-6.21,12.71-17.01,18.61-31.42,18.82-1.5-12.79-5.11-25.21-14.1-34.92-5.58-6.02-12.59-10.75-19.16-15.8-2.78-2.14-6.07-2.08-7.9,1.38-1.85,3.5.3,5.64,3.35,7.35,14.85,8.35,24.3,20.79,28.1,37.44,3.32,14.53-5.08,29.48-19.48,34.6-14.34,5.1-30.43-1.15-36.91-14.61-.7-1.45-.2-3.97.62-5.53,1.15-2.17,3.13-3.9,4.35-5.33,5.76,2.72,11.11,5.85,16.85,7.83,8.95,3.09,17.12.89,20.73-4.72,3.38-5.25,2.22-15.92-3.7-21.62-5.53-5.32-12.03-9.75-18.57-13.84-2.71-1.7-4.25-2.89-4.6-6.27-2.22-21.48-13.53-36.65-33.14-45.41-7.47-3.34-13.99-7.71-18.84-14.18-2.18-2.91-2.9-6.88-4.84-10.02-1.21-1.96-3.48-3.27-5.28-4.88-1.48,1.75-4.3,3.6-4.18,5.23.28,3.82,1.26,7.96,3.23,11.2,5.39,8.83,12.83,15.65,22.48,19.82,33.89,14.65,41.68,50.91,15.93,77.42-6.49,6.68-15.49,11.01-23.57,16.05-3.36,2.09-7.87,3.05-7.27,8.13.6,5.05,3.65,8.87,8.63,10.09,3.97.98,8.22.72,12.32,1.25,4.09.53,8.36.76,12.17,2.17,9.4,3.47,11.83,9.97,10.14,18.58-.41,2.07-.34,4.75.66,6.51,6.65,11.72,1.73,20.57-12.01,20.53-9.07-.02-18.16-.49-27.19-1.35-12.38-1.18-24.54-1.41-36.44,3.05-4.78,1.79-9.35.06-12.19-3.69-3.99-5.26-7.99-10.86-10.29-16.95-1.9-5.05-4.57-8.81-8.53-12.12-7.86-6.57-13.33-14.68-15.35-24.87-1.09-5.48-.11-10.5,4.07-14.46,4.07-3.86,8.43-7.42,12.47-11.31,6.8-6.54,6.8-14.21-.83-19.87-9.74-7.23-13.56-17.29-15.95-27.62,10.68,3.68,21.32,8.09,32.37,10.85,6.48,1.62,13.66.23,20.46.86,6.7.62,11.69,4.25,15,10.31,5.54,10.16,1.21,19.99-10.19,22.21-5.15,1-10.43,1.36-15.6,2.27-8.99,1.59-17.53,4.34-24.64,10.44-6.42,5.52-9.29,12.37-7.91,20.8.59,3.58,1.85,7.29,6.28,6.55,3.95-.66,4.52-3.93,3.64-7.67-1.33-5.63.74-10.66,5.75-12.87,7.84-3.47,16.16-5.91,24.38-8.42,3.58-1.09,7.5-1.02,11.15-1.95,18.81-4.77,25.7-23.5,13.96-38.83-8.43-11.02-19.88-15.65-33.94-14.26-4.72.47-9.81-.03-14.37-1.32-26.82-7.6-30.79-11.7-36.71-38.86-4.18-19.19-6.47-38.53-.91-57.93.5-1.73.86-3.56,1.69-5.12,3.43-6.42,1.46-11.75-2.84-16.9-1.28-1.54-2.61-3.65-2.63-5.52-.29-25.58-.35-51.16-.45-76.74,0-.52.21-1.05.44-2.11,11.83-.61,23.79-.84,35.67-1.96,7.84-.74,15.65-2.42,23.32-4.33,4.68-1.17,8.05-4.3,6.91-11.49,4.04,2.44,7.65,3.75,10.07,6.23,13.96,14.3,20.23,31.32,17.77,51.46-.46,3.76.49,7.96,1.77,11.62,3.08,8.83,6.68,17.47,10.2,26.15.67,1.65,1.74,3.2,2.89,4.57,2.65,3.14,5.35,7.72,9.88,5.72,1.57-.69,1.36-6.48,1.16-9.89-.61-10.44-5.67-19.39-10.84-28.04-3.93-6.59-5.7-13.14-5.93-20.87-.46-15.33-5.44-29.49-14.86-41.79-5.54-7.23-12.51-12.57-22.23-15.94Z"/>
  <path class="cls-1" d="M140.96,581.92c-3.05-6.7-5.62-12.87-8.62-18.82-3.15-6.25-3.86-12.5-2.35-19.39,2.63-11.99,4.14-23.85,1.89-36.45-2.56-14.3,4.85-25.61,15.4-35.12,8.89-8.01,19.12-13.62,29.76-18.79,5.68-2.76,11.16-6.03,16.46-9.48,5.94-3.86,9.96-9.36,12.26-16.15,1.04-3.05.79-5.53-2.25-6.8-3.06-1.28-5.49.2-6.41,3.22-2.16,7.13-7.23,11.62-13.41,14.99-11.12,6.06-22.35,11.9-34.12,18.14,3.19-8.98,8.88-15.92,14.6-22.77,5.34-6.4,11.08-12.48,16.59-18.74,6.76-7.67,10.4-16.58,11.72-26.78,1.24-9.6,3.74-19.03,5.26-28.6,1.76-11.04,3.22-22.14,4.53-33.25,1.59-13.43,5.59-25.76,12.78-37.47,11.67-18.99,30.23-25.86,50.12-30.95,4.01-1.03,8.2-1.38,12.3-2.05.43.46.86.92,1.28,1.38-1.51,1.03-3.2,1.87-4.51,3.11-6.18,5.82-9.81,12.89-10.05,21.5-.14,5.06.87,5.73,5.61,4.29,5.92-1.8,11.89-3.41,17.53-5.02.35,6.36.63,11.46.99,17.97-5.33-1.91-10.66-3.3-15.47-5.75-3.04-1.55-5.56-3.05-8.18-.22-2.8,3.01-.86,5.69,1.32,8.09,8.21,9.01,18.78,13.61,30.54,15.15,20.24,2.64,38.35-3.02,54.22-15.66,1.68-1.34,2.3-4,3.41-6.05-2.7-.97-5.49-2.97-8.06-2.71-6.24.63-12.37,2.37-18.57,3.54-1.9.36-3.87.34-5.79.5.26-5.22.5-10,.8-15.89,11.13,3.02,22,5.97,34.5,9.36-1.68-5.04-2.41-9.88-4.75-13.75-8.16-13.48-20.58-21.35-35.64-25.54-29.55-8.23-57.74-4.9-84.72,9.5-.93.5-1.94.84-2.99,1.28-1.96-15.6,12.08-46.57,24.09-52.25,1.16,2.28,2.93,4.48,3.39,6.92.69,3.74,2.79,5.18,6.04,4.55,11.78-2.27,22.42,1.49,33.4,4.99,7.22,2.3,15.17,3.23,22.78,3.17,10.23-.08,13.61,1.72,17.58,11.39,6.39,15.57,18.16,26.37,32.39,34.75,2.88,1.7,6.21,1.57,7.22-1.79.55-1.84-.84-5.51-2.5-6.56-14.18-9.01-24.97-20.58-31.27-36.44-3.18-8.02-10.66-12.36-18.82-11.23-11.98,1.65-22.6-1.01-34.93-7.04,1.32-.2,2.11-.15,2.76-.43,21.3-9.23,43.19-15.76,66.74-15.22,9.64.22,18.9,2.18,26.62,7.92,2.97,2.21,5.32,6.59,5.97,10.33,1.6,9.15,0,17.79-6.91,24.99-3.48,3.63-6.48,7.87-8.93,12.26-.86,1.54.06,4.74,1.24,6.43.57.81,4.29.6,5.5-.43,10.65-9.05,17.5-20.47,20.06-34.28,2.52-13.61-5.27-26.47-18.1-31.7-22.92-9.34-45.76-5.88-68.21.68-13.96,4.08-27.16,10.68-40.83,15.83-2.8,1.06-7.19,2.07-8.99.69-3.06-2.35-5.14-6.21-3.55-11.06,3.29-10.04,9.52-14.62,20.05-15.94,11.65-1.45,23.47-2.98,34.66-6.34,22.09-6.64,44.38-13.11,64.1-25.85,1.17-.76,3.77-.23,5.24.56,17.18,9.2,33.94,8.22,50.21-1.07,31.38,16.48,64.08,29,99.71,32.76,12.13,1.28,18.06,6.06,21.2,16.49,1.45,4.81-.98,8.2-3.78,10.49-1.65,1.35-6.06.78-8.46-.44-21.46-10.94-43.86-18.86-67.87-21.57-13.04-1.47-26.1-1.44-38.6,3.62-16.55,6.7-23.39,20.38-18.98,37.66,2.96,11.63,10.14,20.73,17.78,29.47.94,1.08,5.54.94,5.88.2.94-2.05,1.46-5.26.45-7.05-2.94-5.16-7.02-9.66-10.04-14.78-1.97-3.34-3.65-7.22-4.12-11.03-2.3-18.66,7.12-27.82,28.89-28.78,24.89-1.1,47.94,5.85,71.31,15.96-9.41,4.26-17.85,8.04-27.86,7.19-5.06-.43-10.71-.27-15.28,1.6-3.95,1.62-8.17,5.46-9.78,9.35-6.45,15.54-16.88,27.23-31.12,35.82-.16.09-.4.16-.45.29-.81,2.31-1.6,4.63-2.4,6.95,2.39.57,5.51,2.41,7.06,1.52,14.6-8.41,26.72-19.39,32.96-35.54,3.31-8.56,7.24-11.67,16.44-10.37,9.36,1.32,17.9-.85,26.45-4.22,9.67-3.82,19.57-6.54,30.18-4.14,3.7.84,5.62-1,6.57-4.62.64-2.44,2.15-4.65,3.9-8.27,16.31,15.18,21.46,33.71,24.67,53.39-10.02-3.83-19.2-8.22-28.86-10.86-26.27-7.17-52.2-5.88-76.41,7.3-12.19,6.64-21.6,16.46-23.64,32.16,11.64-3.12,22.86-6.12,34.59-9.26v16.26c-7.37-1.32-14.95-2.68-22.52-4.06-1.06-.19-2.25-.88-3.14-.59-2.27.75-4.39,1.93-6.57,2.93.97,1.97,1.46,4.5,3,5.82,8.52,7.33,18.54,12.16,29.39,14.6,18.83,4.24,36.75,2.35,52.32-10.41,1.53-1.26,3.43-2.59,4.07-4.29.84-2.23.61-4.87.85-7.33-2.61.03-5.4-.54-7.79.2-5.31,1.65-10.42,3.94-15.89,6.09.32-6.72.56-11.84.86-18.24,5.87,1.69,11.67,3.25,17.41,5.04,5.36,1.67,6.17,1.28,6.01-4.3-.24-8.36-3.79-15.31-9.68-21.14-1.4-1.38-2.81-2.75-4.33-4.25,38.6,2.85,69.15,23.28,75.96,62.28,2.36,13.49,3.57,27.18,5.66,40.73,1.76,11.37,3.4,22.82,6.33,33.91,1.83,6.93,5.01,13.96,9.24,19.72,8.25,11.21,17.78,21.48,26.52,32.34,2.53,3.14,4.18,6.98,7,11.81-13.49-7.29-25.52-13.67-37.44-20.27-5.22-2.89-9.09-7.14-10.95-12.99-1.02-3.2-3.12-5.14-6.54-3.81-3.5,1.36-3.19,4.16-2.19,7.27,3.26,10.13,11.15,15.81,19.77,20.72,5.03,2.86,10.23,5.46,15.51,7.83,11.65,5.22,21.36,12.98,29.69,22.48,7.81,8.91,11.05,19.29,8.39,31.07-2.65,11.71-.04,23.04,2.54,34.28,1.52,6.62.36,12.44-2.43,18.31-2.92,6.14-5.68,12.35-8.19,17.82-4.55-4.19-9.28-8.9-14.4-13.15-4.45-3.69-8.97-7.62-14.12-10.07-6.56-3.12-9.28-7.92-11.29-14.56-15.94-52.45-44.64-96.68-86.58-132.21-5.21-4.41-10.24-9.03-15.45-13.44-17.34-14.71-38.37-21.12-59.87-26.47-2.09-.52-4.15-1.13-6.22-1.71-.14-.04-.24-.25-.76-.83,4.32-6.61,5.71-14.01,3.19-21.85-2.8-8.74-8.58-14.56-17.49-17.03-18.4-5.11-30.88-26-26.77-44.92.27-1.24,1.1-2.65.75-3.66-.73-2.11-1.62-4.94-3.29-5.77-2.85-1.41-5.81.48-6.02,3.55-.56,8.03-1.63,16.3-.35,24.12,2.02,12.3,8.47,22.76,18.88,30.06,3.72,2.61,8.24,4.36,12.66,5.62,6.62,1.89,11.49,6.28,12.71,12.72,1.12,5.89-1.8,12.24-8.05,16.19-.09-2.13-.17-3.76-.24-5.4-.21-5.54-2.85-9.28-6.83-9.69-5.53-.57-7.76,3.58-8.36,7.51-.69,4.48-3.04,5.22-6.48,5.27-6.33.09-12.67.02-19.45.02v-12.24c2.28.96,4.25,2.26,6.35,2.52,2.05.25,5.47.08,6.08-1.07.92-1.74.07-4.52-.35-6.8-.12-.65-1.27-1.29-2.08-1.62-10.36-4.34-20.76-4.29-31.12-.06-1.1.45-2.6,1.48-2.75,2.43-.33,2.11-.64,4.85.43,6.35.8,1.13,3.84,1.16,5.75.86,1.95-.31,3.75-1.62,6.36-2.84v12.33h-25.43c-2.09-9.41-4.9-12.96-9.59-12.67-4.95.31-7.15,4.38-7.64,14.12-6.09-1.7-9.63-10.55-6.95-17.74,1.89-5.09,5.49-8.46,10.86-9.73,17.64-4.16,27.66-16.1,33.02-32.57,2.67-8.22,3.29-16.7,1.15-25.2-.85-3.4-1.81-7.23-6.53-6.27-4.64.95-4.27,4.3-3.3,8.08,4.52,17.74-4.93,34.08-19.07,43.7-2,1.36-4.65,1.95-7.09,2.46-17.8,3.73-24.75,24.5-16.33,37.56.36.56.61,1.19,1.09,2.16-7.97,2.28-15.47,4.8-23.14,6.55-16.03,3.65-30.15,11.11-42.88,21.17-21.94,17.35-42.7,36.06-58.81,59.09-19.89,28.44-35.86,58.92-45.14,92.61-.57,2.08-1.84,4.67-3.56,5.61-13.03,7.15-24.55,16.04-33.75,28.13Z"/>
  <path class="cls-1" d="M552.69,141.48c3.48,10.24-.46,22.61-9.03,27.91-1.88,1.17-4.46,1.71-6.72,1.7-42.68-.25-71.77-30.22-77.94-62.81-5.4-28.55,10.02-57.34,38.27-69.48,2.15-.92,4.32-1.77,6.6-2.69-18.47-13.08-158.02-13.49-189.93-.39,3.81,1.65,7.19,2.98,10.46,4.54,38.76,18.52,47.89,66.76,19.22,101.76-15.92,19.43-36.9,28.48-61.81,29.2-9.55.27-16.45-10.93-17.26-19.29-.32-3.3.27-6.68.51-11.27,7.01,7.04,14.29,10.42,22.84,10.11,9.9-.35,19.11-3.58,26.4-10.13,6.94-6.23,13.9-12.95,18.91-20.71,15.16-23.48,10.12-46.24-12.88-62.27-15.87-11.06-33.86-14.93-52.73-13.19-15.1,1.39-30.52,2.96-44.96,7.26-88.67,26.43-143.33,84.81-162.12,175.71-4.65,22.52-4.7,45.31-1.28,68.12,2.81,18.71,17.89,25.31,30.23,26.11,22.45,1.46,39.91-7.71,51.62-26.86,9.25-15.12,14.7-31.35,12.25-49.55-2.26-16.8-12.61-28.73-27.55-30.71-6.91-.92-13.21,1.26-19.23,4.57-1.81.99-4.01,1.26-7.23,2.21,8.21-12.64,31.07-21.57,43.58-17.82,9.26,2.77,14.79,9.56,17.92,18.33,5.79,16.22,4.03,32.56-.26,48.67-4.76,17.87-13.07,34.08-24.62,48.6-9.7,12.2-22.8,18.38-37.82,19.95-28.95,3.03-51.55-14.87-55.97-44.52-7.52-50.42,3.31-97.66,27.65-141.77,32.48-58.84,81.77-97.2,146.15-116.5,24.55-7.36,49.47-8.98,74.82-6.23,1.94.21,4.02-.66,6-1.17,11.01-2.85,21.85-6.68,33.03-8.46,39.62-6.3,79.59-7.17,119.49-4.18,20.88,1.57,41.74,4.99,62.22,9.36,9.46,2.02,18.24,4.23,28.22,3.63,46.15-2.8,88.2,10.78,126.7,35.26,56.87,36.16,92.72,87.44,107.64,153.22,5.62,24.76,7.45,49.64,3.77,74.93-3.6,24.74-20.31,44.09-44.37,46.8-19.21,2.17-36.78-4.37-49.33-19.72-17.15-20.98-27.65-45.12-28.74-72.45-.35-8.65,1.09-17.8,3.76-26.05,4.71-14.57,15.98-20.66,31.05-18.03,11.58,2.02,20.97,8.33,29.41,16.09-.13.47-.26.94-.39,1.42-1.7-.27-3.72-.05-5.06-.9-20.22-12.73-40.73-2.02-47.08,20.31-6.87,24.14,9.26,71.89,44.29,79.74,6.94,1.56,14.52,2.38,21.48,1.34,17.86-2.67,26.69-13.07,28.49-31.68,5.16-53.36-6.53-102.74-36.73-147.11-35.99-52.87-86.01-84.53-149.23-95.06-18.47-3.08-37-5.4-55.52.06-13.94,4.11-25.86,11.16-34.94,22.74-8.1,10.34-10.66,22.21-6.76,34.3,7.5,23.29,22.28,39.99,47.18,45.68,10.6,2.42,19.55-1.3,27.28-8.64Z"/>
  <path class="cls-1" d="M291.79,83.01c-10.04-6.63-19.98-7.36-30.06-2.73-9.45,4.36-14.31,11.81-13.67,22.57.09,1.54-1.5,4.18-2.77,4.5-1.64.41-4.18-.45-5.54-1.68-10.22-8.9-27.57-7.77-36.24,2.63-6.18,7.36-8.08,16.03-7.58,25.39.18,3.22-.41,6.09-4.27,6.22-3.77.09-4.81-2.54-4.63-5.86.27-5.36.55-10.72.82-16.03-22.8-4.81-40.46,10.45-39.06,32.02.73,11.31,4.45,21.48,9.81,31.29,1.64,2.95,3.36,6.22-.54,8.45-3.63,2.04-5.72-.86-7.13-3.72-3.54-7.04-6.86-14.21-10.4-21.62-7.27,8.22-12.94,17.35-15.39,28.84,1.54,0,2.59.05,3.68-.05,21.62-1.5,33.65,5.99,41.78,25.98.54,1.32,1.18,2.77,2.23,3.59,7.81,6.49,12.49,14.81,15.67,24.3,3.32,9.99,20.16,18.85,28.79,16.49,3.22-12.76,6.31-24.89,9.45-37.15-.64.27-1.36.5-2,.82-13.85,6.68-27.61,6.45-40.1-2.5-12.53-8.99-17.21-22.3-14.99-37.28,1.5-9.81,4.59-19.21,4.91-29.43.32-8.9,8.72-15.44,16.71-15.89,8.54-.5,17.94,5.36,20.48,13.35.59,1.82-1.09,4.36-1.77,6.59-2.09-.77-4.54-1.09-6.27-2.41-1.82-1.32-2.5-4.54-4.36-5.31-3.27-1.32-7.4-2.59-10.44-1.63-2.54.77-4.04,4.81-6.04,7.45.45.32.91.64,1.36.95.45-.27,1-.45,1.41-.73,3-2,6.31-4,8.95-.05,2.68,4.04-1.64,5.27-3.63,7.68-3.95,4.77-8.63,9.49-10.81,15.12-5.45,14.17,1.91,30.11,15.62,36.29,13.31,5.99,28.38,1.54,34.97-9.54-3.72-4.77-8.36-8.86-10.9-13.76v.77c-.36,7.95-6.72,13.49-14.9,13.03-7.49-.45-13.53-6.9-13.22-14.12.36-7.72,7.13-13.94,14.67-13.49,4.22.23,7.86,2.09,10.22,4.9-2.23-8.63-2.13-17.53,2.13-26.2.91-1.86,2.63-3.63,4.45-4.68.82-.45,3.77.68,4,1.54.54,1.95.64,4.59-.27,6.31-6.72,13.03-2.23,29.66,10.26,37.1,7.36,4.36,12.35,1.59,12.76-6.22-4.91-3.59-9.72-6.45-13.72-10.22-2.86-2.72-4.77-6.81-2.09-10.81.95-1.41,3.5-2.41,5.31-2.41,1.09,0,3.18,2.27,3.18,3.54-.14,6.04,4.72,7.18,8.63,9.13,3.95,1.95,5.77-1.59,8.04-3.81,1.27-1.23,2.59-2.5,4.04-3.86-12.08-16.35-16.58-34.29-10.54-53.86,5.99-19.53,19.17-32.7,39.01-39.78Z"/>
  <path class="cls-1" d="M679.17,164.78c7.26,7.76,12.6,16.9,15.33,28.7-6.31,0-12.16-.82-17.69.16-13.69,2.44-22.12,11.4-27.26,23.94-.98,2.38-2.95,4.35-4.38,6.56-4.49,6.92-9.95,13.43-13.17,20.9-4.93,11.44-18.33,20.26-30.68,18.67-3.22-12.46-6.41-24.78-9.29-35.93,6.41,1.08,14.02,3.28,21.69,3.48,19.79.51,35.37-14.67,36.6-34.59.48-7.73-.53-15.1-4.02-22.17-.92-1.86-.87-4.48-.54-6.64,2.21-14.25-7.22-26.57-20.09-25.68-8.89.62-14.58,6.05-17.96,13.8-.64,1.47.5,4.92,1.84,5.69,1.31.75,4.25-.29,5.86-1.42,1.67-1.17,2.24-4.13,3.95-5,3.16-1.61,6.94-3.39,10.23-3.03,4.3.46,5.98,4.55,6.56,9.38-1.98-1.17-3.46-2.75-4.91-2.73-2.21.03-4.41,1.17-6.61,1.84.73,1.97.86,4.76,2.28,5.77,7.46,5.32,12.31,12.09,13.81,21.23,2.26,13.74-5.23,27.05-18.32,32.3-12.85,5.15-27.21.83-35.01-10.44,4.12-4.49,8.22-8.96,11.76-12.81,2.11,3.2,4.02,7.43,7.12,10.46,3.44,3.36,8.26,3.38,12.75,1.51,7.4-3.08,10.6-11.5,7.15-18.5-3.86-7.83-12.54-9.37-22.7-3.72,0-5.87.43-11.56-.16-17.15-.35-3.28-2.14-6.47-3.61-9.54-1.5-3.11-4.12-5.05-7.48-2.97-3.15,1.95-2.19,4.81-.67,7.64,6.87,12.84,2.08,29.58-10.43,36.94-3.15,1.85-6.47,3.26-9.4.27-1.86-1.9-2.85-4.65-3.52-5.81,5.82-4.69,10.79-7.97,14.75-12.2,1.74-1.86,2.07-5.73,1.72-8.53-.18-1.45-3.12-3.22-5.03-3.53-1.13-.18-3.84,2.21-3.84,3.43.04,6.27-4.82,7.53-8.97,9.37-4.12,1.83-5.58-2.14-7.87-4.2-1.2-1.08-2.35-2.2-3.8-3.55,11.92-16.36,16.52-34.19,10.48-53.82-5.98-19.44-18.86-32.55-38.06-39.45,5.21-6.92,20.82-7.06,28.24-3.63,9.39,4.34,14.82,12.21,14.67,21.52-.03,2.02.93,4.56,2.35,5.91.8.76,3.97.21,5.19-.81,8.59-7.19,18.23-8.72,28.4-4.82,10.27,3.94,15.21,12.4,16.63,22.99.43,3.2-.3,6.63.5,9.7.56,2.13,2.83,3.82,4.33,5.71,1.65-1.76,4.6-3.45,4.7-5.3.3-5.32-.55-10.71-.94-16.07,17.9-5.8,38.48,6.01,39.24,27.56.42,11.88-3.44,22.78-8.81,33.2-.66,1.29-1.97,2.54-1.98,3.81,0,2.22.77,4.44,1.22,6.66,2.02-.65,5.1-.7,5.89-2.06,4.21-7.3,7.85-14.93,11.97-22.99Z"/>
  <path class="cls-1" d="M748.76,232.12c-4.51-3.6-9.69-7.37-14.45-11.61-4.81-4.28-8.9-9.42-13.88-13.46-4.47-3.62-10.96-5.3-14.28-9.6-3.11-4.03-2.78-10.53-4.75-15.64-4.03-10.42-10.08-19.57-18.32-27.29-1.58-1.48-2.8-4.19-2.84-6.35-.51-26.15-17.87-42.17-43.98-39.98-5.37.45-8.92-.21-12.7-5.07-9.22-11.86-22.02-15.15-36.55-11.61-2.43.59-4.77,1.5-6.75,2.13-2.94-4.8-5.16-9.87-8.64-13.84-13.31-15.19-39.39-15.65-53.82-1.5-1.55,1.52-4.11,2.46-6.33,2.79-7.1,1.04-14.26,1.67-21.67,2.48,3.22-7.51,9-13.15,15.95-17.76,15.99-10.61,33.97-12.21,52.27-10.35,42.26,4.3,79.77,20.82,113.41,46.27,39.32,29.75,63.21,69.51,74.76,117.03.6,2.46,1.06,4.95,1.54,7.43.44,2.3.81,4.62,1.04,5.93Z"/>
  <path class="cls-1" d="M70.67,232.22c5.59-34.6,19.42-66.83,41.64-95.4,26.51-34.09,61.82-55.73,101.61-70.79,20.82-7.88,42.47-12.01,64.79-10.85,16.77.87,31.99,6.12,43.71,18.98,1.34,1.47,2.56,3.06,3.69,4.69,1.01,1.47,1.82,3.07,2.66,4.52-8.45-.75-16.75-1.45-25.02-2.28-.75-.08-1.53-.88-2.1-1.52-17.59-19.89-55.12-13.42-62.52,13.85-.04.16-.23.27-.45.52-13.27-5.65-26.02-5.27-37.8,3.93-1.56,1.22-3.47,2.45-4.27,4.13-3.17,6.66-8.37,6.61-14.78,6.11-20.4-1.6-36.21,9.5-41.12,28.05-.05.17-.2.34-.18.51.88,11.5-5.35,19.44-12.41,27.68-7.45,8.69-12.4,19.09-13.14,31-.07,1.16-1.65,2.56-2.86,3.25-9.79,5.59-18.73,11.95-26.01,20.9-4.26,5.23-10.55,8.8-15.42,12.72Z"/>
  <path class="cls-1" d="M675.41,444.16c-9.15-10.61-18.41-20.98-27.24-31.69-6.42-7.79-10.49-16.62-11.17-27.04-.52-7.91-2.29-15.73-3.36-23.61-.17-1.25-.02-3.2.78-3.81,12.19-9.36,25.04-17.4,41.23-16.93,13.38.38,22.27,9.26,24.87,23.39,2.21,11.97-.24,23.29-3.27,34.69-4.41,16.62-12.19,31.53-21.84,45.01Z"/>
  <path class="cls-1" d="M144.67,444.68c-13.08-17.82-21.75-36.87-25.02-58.02-1.17-7.53-1.25-15.56,0-23.06,2.95-17.83,16.72-26.13,34.49-21.78,11.07,2.71,20.86,8.04,29.64,15.16,1.25,1.01,2.28,3.34,2.09,4.89-1.38,10.93-2.07,22.11-5.08,32.62-2.1,7.35-7.07,14.07-11.58,20.48-3.62,5.14-8.68,9.24-12.74,14.1-4.04,4.84-7.63,10.06-11.79,15.61Z"/>
  <path class="cls-1" d="M68.54,270.08c2.88,4.53,5.27,9.47,8.71,13.53,13.6,16.03,34.56,12.4,41.6-7.3,5-14.01,4.03-28.07-2.12-41.63-1.22-2.7-3.37-4.99-5.06-7.42,8.47-7.39,23.1-2.89,28.54,8.37,3.44,7.12,3.77,14.69,3.14,22.27-1.4,16.78-6.96,31.95-20.11,43.09-11.86,10.05-25.6,14.12-40.94,8.9-6.86-2.34-11.95-6.4-12.35-14.68-.41-8.45-1.51-16.86-2.31-25.29.3.06.6.11.9.17Z"/>
  <path class="cls-1" d="M752.08,269.1c-.95,9.72-1.63,19.47-2.93,29.15-.96,7.18-10.5,13.23-20.71,13.7-14.91.68-27.56-4.44-37.03-15.92-14.31-17.34-19.08-37.24-12.53-58.89,3.43-11.35,17.22-16.76,26.98-11.89.77.38,1.43.97,2.23,1.52-11.33,14.71-13.16,30.8-7.99,47.86,2.9,9.57,8.62,17.01,19.14,18.63,10.84,1.66,18.97-3.61,25.06-12.08,2.7-3.75,4.62-8.06,6.89-12.12.3.01.6.03.9.04Z"/>
  <path class="cls-1" d="M115.36,259.52c-2.23,5.78-3.71,12.01-6.86,17.25-5.07,8.44-14.36,9.26-21.86,2.84-11.86-10.16-13.96-33.08-4.14-45.14,5.33-6.54,14.33-7.37,20.66-1.69,7.78,6.97,10.59,16.09,12.19,26.74Z"/>
  <path class="cls-1" d="M743.09,254.52c.06,8.65-2.61,16.43-8.24,22.94-7.26,8.38-16.51,7.98-23.46-.68-9.65-12.01-6.17-36.21,6.46-45.05,5.64-3.94,15.34-2,19.8,3.97,4.03,5.39,5.61,10.85,5.44,18.82Z"/>
  <path class="cls-1" d="M684.26,335.4c-20.06.4-31.4-11.18-38.69-27.84-8.51-19.47-11.27-39.49-4.1-60.1.67-1.93,1.66-3.76,2.9-6.51,7.9,50.52,10.49,56.63,39.89,94.45Z"/>
  <path class="cls-1" d="M176.08,241.26c1.66,5.79,4.05,11.48,4.85,17.38,2.99,21.93-1.16,42.4-13.81,60.89-7.65,11.18-18.54,15.85-32.29,16.01,12.3-12.92,21.83-27.3,28.66-43.41,6.83-16.12,11.21-32.77,10.69-50.48.63-.13,1.26-.26,1.9-.39Z"/>
  <path class="cls-1" d="M523.83,94.64c-12.56,3.47-12.89,18.21-5.39,27.35,7.22,8.8,14.12,10.58,28.02,7.6-3.2,7.38-9.85,11.15-17.74,10.08-19.49-2.64-35.74-22.59-40.61-39.09-.32-1.08.64-3.42,1.6-3.86,10.73-4.88,21.79-6.04,34.12-2.08Z"/>
  <path class="cls-1" d="M295.4,94.68c10.39-4.32,24.83-2.9,35.2,3.27-2.14,18.34-23.14,39.62-41.24,41.77-7.71.92-14.33-2.93-17.51-10.61,7.52,3.16,14.57,3.11,21.33-1.07,5.44-3.36,9.32-7.93,11.12-14.11,2.58-8.87-.39-15.53-8.91-19.25Z"/>
  <path class="cls-1" d="M392.95,138.02c11.77-18.97,14.68-39.26,11.57-60.91h10.51c-3.24,21.86.02,42.28,11.66,60.95-10.1,9.83-23.9,9.87-33.74-.04Z"/>
  <path class="cls-1" d="M176.49,325.65c11.18-19.26,16.39-39.41,15.24-61.17,5.39.07,14.92,6.69,15.91,11.26.26,1.18-.61,2.66-1.12,3.94-4.61,11.53-9.14,23.1-13.99,34.53-1.01,2.37-2.84,4.82-4.96,6.2-3.4,2.2-7.36,3.53-11.08,5.23Z"/>
  <path class="cls-1" d="M642.7,325.5c-4.24-1.98-8.57-3.79-12.65-6.05-1.3-.72-2.24-2.53-2.8-4.03-4.84-12.96-9.56-25.97-14.82-40.32,2.48-4.97,8.25-9.69,15.01-10.85-.52,21.78,4.3,42.21,15.27,61.25Z"/>
  <path class="cls-1" d="M254.25,708.27c1.54,4.33,3.06,8.35,4.35,12.45.26.82-.04,2.33-.65,2.83-5.25,4.3-10.91,7.79-18.05,7.71-4.23-.05-5.52-2.03-3.96-5.97,3.38-8.52,10.26-13.19,18.3-17.02Z"/>
  <path class="cls-1" d="M564.07,708.4c7.47,2.95,13.27,7.42,17.03,14.03,1.18,2.08,1.78,5.45.88,7.41-.56,1.21-4.78,1.79-6.8,1.07-4.84-1.72-9.43-4.23-13.91-6.79-.9-.51-1.42-2.85-1.1-4.09.98-3.79,2.46-7.45,3.9-11.63Z"/>
  <path class="cls-1" d="M314.54,287.25c0,5.71-4.3,11.1-9.01,11.28-4.3.17-8.33-4.5-8.34-9.67-.01-5.76,4.86-11.44,9.66-11.25,4.23.16,7.7,4.51,7.7,9.65Z"/>
  <path class="cls-1" d="M520.88,288.61c.08,5.73-3.2,9.93-7.75,9.92-4.88-.01-8.92-4.97-9-11.04-.08-5.82,3.12-9.9,7.76-9.88,4.89.02,8.9,4.92,8.99,11Z"/>
  <path class="cls-1" d="M278.81,117.75c-6.94-.06-9.49-3.9-6.54-7.54,2.54-3.15,6.25-5.67,9.94-7.41,1.46-.69,5.05.93,6.21,2.55.93,1.29.43,4.98-.81,6.17-3,2.86-6.8,4.88-8.8,6.23Z"/>
  <path class="cls-1" d="M534.01,102.21c5.23-.09,11.85,5.24,12.74,9.31.87,3.99-1.3,7.1-5.09,5.92-4.06-1.26-7.78-4-11.18-6.7-1.06-.84-1.32-4.01-.59-5.4.86-1.63,3.21-2.49,4.13-3.13Z"/>
</svg>