<?xml version="1.0" encoding="UTF-8"?>
<svg id="Livello_1" data-name="Livello 1" xmlns="http://www.w3.org/2000/svg" viewBox="0 0 841.89 841.89">
  <defs>
    <style>
      .cls-1 {
        fill: #1b8741;
      }
    </style>
  </defs>
  <path class="cls-1" d="M261.02,224.52s113.11-49.56,119.6-20.37c7.89,35.49-119.6,20.37-119.6,20.37Z"/>
  <path class="cls-1" d="M177.34,648.23s7.48-65.55,33.58-44.05c32.69,26.93-33.58,44.05-33.58,44.05Z"/>
  <path class="cls-1" d="M388.68,642.88s-83.79,11.07-79.81-25.31c3.22-29.45,79.81,25.31,79.81,25.31Z"/>
  <path class="cls-1" d="M400.96,631.83s-99.86-29.26-78.66-63.5c20.41-32.96,78.66,63.5,78.66,63.5Z"/>
  <path class="cls-1" d="M411.85,624.38s-87.21-74.01-51.01-109.6c29.6-29.1,51.01,109.6,51.01,109.6Z"/>
  <path class="cls-1" d="M260.71,232.51s95.7-2.47,74.16,30.7c-11.66,17.95-74.16-30.7-74.16-30.7Z"/>
  <path class="cls-1" d="M257.72,213.4s60.97-73.81,71.85-35.78c5.89,20.58-71.85,35.78-71.85,35.78Z"/>
  <path class="cls-1" d="M167.96,195.75c-.78,3.51-1.14,6.57-2.15,9.39-4.53,12.74-12.27,23.17-23.69,30.48-3.81,2.44-8.28,4.1-12.67,5.32-6.3,1.75-10.54-2.1-9.72-8.7.37-2.98,1.29-6.18,2.9-8.67,2.75-4.23,5.87-8.37,9.51-11.83,8.76-8.34,18.94-14.25,31.15-15.97,1.29-.18,2.62-.02,4.66-.02Z"/>
  <path class="cls-1" d="M261.02,244.68s58.23,26.12,38.08,43.61c-12.39,10.75-38.08-43.61-38.08-43.61Z"/>
  <path class="cls-1" d="M247.29,207.44s56.66-29.38,35.54-45.7c-12.98-10.03-35.54,45.7-35.54,45.7Z"/>
  <path class="cls-1" d="M238.31,252.75c-4.18-7.47-9.45-13.31-17.82-15.99,7.57-7.3,8.69-16.2,8.13-26.19,6.33-1.85,12.35-.53,17.72,3.55,7.18,5.44,10,12.95,8.23,21.64-1.76,8.61-7.21,14.33-16.26,16.99Z"/>
  <path class="cls-1" d="M230.97,206.39c-.1-.76-.31-1.23-.19-1.61,2.46-8.27,2.49-16.72,2.12-25.23-.14-3.21.03-6.52.67-9.65,1-4.85,3.51-8.86,8.19-11.15,4.76-2.34,9.28-1.62,13.58,1.15,2.56,1.65,3.84,4.09,3.27,7.11-.51,2.71-.97,5.56-2.18,7.98-5.63,11.3-13.1,21.24-22.66,29.55-.78.68-1.73,1.15-2.79,1.85Z"/>
  <path class="cls-1" d="M255.32,254.48c-.1.76-.31,1.23-.19,1.61,2.46,8.27,2.49,16.72,2.12,25.23-.14,3.21.03,6.52.67,9.65,1,4.85,3.51,8.86,8.19,11.15,4.76,2.34,9.28,1.62,13.58-1.15,2.56-1.65,3.84-4.09,3.27-7.11-.51-2.71-.97-5.56-2.18-7.98-5.63-11.3-13.1-21.24-22.66-29.55-.78-.68-1.73-1.15-2.79-1.85Z"/>
  <path class="cls-1" d="M83.89,426.02s-55.65-21.14-37.13-42.5c15.41-17.77,37.13,42.5,37.13,42.5Z"/>
  <path class="cls-1" d="M225.67,199.83c-4.6-6.05-10.75-7.15-16.98-8.05-.76-.11-1.52-.23-2.27-.41-5.41-1.27-6.97-4.77-4.28-9.6,2.7-4.84,8.03-6.9,13.42-5.02,3.95,1.37,6.96,3.95,8.55,7.87,1.87,4.59,2.44,9.36,1.55,15.21Z"/>
  <path class="cls-1" d="M240.43,257.16c1.69,7.41-1.42,12.83-4.73,18.19-.4.65-.8,1.31-1.14,2-2.5,4.97-.81,8.41,4.61,9.44,5.45,1.04,10.44-1.73,12.47-7.07,1.48-3.91,1.44-7.87-.55-11.61-2.32-4.38-5.61-7.88-10.66-10.95Z"/>
  <path class="cls-1" d="M777.69,480.17c-22.18,27.67-57.96,5.36-27.81-22.26,12.58-10.36,25.32,5.27,16.16,19.6,41.46-61.35-38.92-31.18-66.12,58.79-14.11,46.67-3.18,90.03-20.38,137.53-29.72,70.31-112.38,81.54-157.63,17.01-66.65,60.16-38.49-57.09-20.21-10.38,2.44,6.23-3.94,15.72-9.96,7.37,2.9,0,5.91-13.79-.19-6.12-21.71,27.24,42.47,8.05,9.77-13.22-54.17-35.21-11.44,66.69-80.37,70.29-68.93-3.6-26.18-105.5-80.37-70.29-32.69,21.27,31.48,40.46,9.77,13.22-6.1-7.67-3.09,6.12-.19,6.12-6.02,8.35-12.39-1.14-9.96-7.37,18.28-46.71,46.44,70.54-20.21,10.38-45.25,64.53-127.91,53.3-157.63-17.01-17.2-47.5-6.27-90.86-20.38-137.53-27.2-89.97-107.57-120.14-66.12-58.79-9.15-14.32,3.58-29.95,16.16-19.6,30.15,27.62-5.63,49.93-27.82,22.26-30.08-38.13,1.38-67.3,37.39-36.1-146.47-276.03,64.23-87.79,190.79-140.98,40.97-18.01,110.84-57.62,104.78-96.62-7.63-49.13-138.1-92.36-208.56-21.97-20.63,20.61-3.22,66.14,20.04,45.57,19.36-17.12-7.46-25.46-9.55-12.65,28.47-.51-5.59,26.46-8.24,6.1-4.87-37.77,60.25-19.38,21.48,15.55,65.67,41.58-38.49,83.44-27.9,28.34,2.97-15.46,21.63-8.45,17.18,3.01-12.14-14.62-2.78,14.21,8.98,5.59,30.63-22.46-69.04-26.18-31.35-90.33-99.27,14.91-5.95-65.86-28.64-91.47,67.28,2.58,33.64,26.16,7.16,51.31,79.19-18.09-14.96,64.82,4.51,7.86-24.38,8.62-4.49,33.24,8.56,23.41,84.27-63.45,230.15-66.69,240.46,24.28,9.98,88.04-131.62,170.45-282.32,113.87,15.08,30.57-5.93,67.81-36.25,40.89-20.74-24.98,5.11-63.38,20.91-30.82,7.58,28.07-20.13,21.04-14.57,2.84,3.43,8.56,4.96,6.57,8.37,5.38,5.89-14.38-13.01-10.87-12.2-2.44-3.66,21.16,28.47,29.32,26.54,3.16-1.97-48.91-84.78-24.07-27.24,75.71,63.74,110.56,67.92,114.29,77.94,251.73,54.95-48.7,131.03,72.28,38.53,48.91,67.37,61.16,147.97-144.8,179.86-9.38,3.45,14.45,16.61,23.39,30.1,23.28,13.49.11,26.65-8.83,30.1-23.28,31.88-135.41,112.49,70.54,179.86,9.38-92.49,23.37-16.42-97.62,38.53-48.91,10.02-137.44,14.19-141.17,77.94-251.73,57.54-99.78-25.27-124.63-27.24-75.71-1.93,26.16,30.21,18.01,26.54-3.16.8-8.43-18.09-11.95-12.2,2.44,3.41,1.19,4.94,3.18,8.37-5.38,5.55,18.2-22.16,25.23-14.57-2.84,15.8-32.56,41.65,5.85,20.91,30.82-30.31,26.93-51.33-10.32-36.25-40.89-150.68,56.58-292.3-25.82-282.32-113.87,10.32-90.97,156.19-87.72,240.46-24.28,13.05,9.83,32.94-14.79,8.56-23.41,19.47,56.96-74.67-25.95,4.51-7.86-26.48-25.15-60.12-48.72,7.16-51.31-22.69,25.61,70.63,106.39-28.64,91.47,37.69,64.15-61.96,67.87-31.35,90.33,11.78,8.62,21.14-20.21,9-5.59-4.47-11.46,14.19-18.47,17.18-3.01,10.59,55.1-93.57,13.24-27.92-28.34-38.77-34.93,26.37-53.32,21.48-15.55-2.63,20.36-36.71-6.61-8.24-6.1-2.1-12.82-28.92-4.47-9.55,12.65,23.28,20.57,40.67-24.96,20.04-45.57-70.46-70.4-200.93-27.16-208.56,21.97-6.06,39,63.81,78.62,104.78,96.62,126.56,53.19,337.25-135.05,190.79,140.98,36.01-31.2,67.47-2.03,37.39,36.1Z"/>
  <path class="cls-1" d="M420.94,615.05s-53.3-115.24,0-130.67c53.32,15.42,0,130.67,0,130.67Z"/>
  <path class="cls-1" d="M580.87,224.52s-113.11-49.56-119.6-20.37c-7.89,35.49,119.6,20.37,119.6,20.37Z"/>
  <path class="cls-1" d="M451.98,654.94c-15.68,9.43-22.24,25.12-31.04,38.32-8.79-13.2-15.36-28.9-31.04-38.32,6.69-9.96,16.78-23.32,31.04-22.52,14.28-.81,24.34,12.56,31.04,22.52Z"/>
  <path class="cls-1" d="M664.55,648.23s-7.48-65.55-33.58-44.05c-32.69,26.93,33.58,44.05,33.58,44.05Z"/>
  <path class="cls-1" d="M453.21,642.88s83.79,11.07,79.81-25.31c-3.22-29.45-79.81,25.31-79.81,25.31Z"/>
  <path class="cls-1" d="M440.93,631.83s99.86-29.26,78.66-63.5c-20.41-32.96-78.66,63.5-78.66,63.5Z"/>
  <path class="cls-1" d="M430.04,624.38s87.21-74.01,51.01-109.6c-29.6-29.1-51.01,109.6-51.01,109.6Z"/>
  <path class="cls-1" d="M581.18,232.51s-95.7-2.47-74.16,30.7c11.66,17.95,74.16-30.7,74.16-30.7Z"/>
  <path class="cls-1" d="M584.17,213.4s-60.97-73.81-71.85-35.78c-5.89,20.58,71.85,35.78,71.85,35.78Z"/>
  <path class="cls-1" d="M673.93,195.75c.78,3.51,1.14,6.57,2.15,9.39,4.53,12.74,12.27,23.17,23.69,30.48,3.81,2.44,8.28,4.1,12.67,5.32,6.3,1.75,10.54-2.1,9.72-8.7-.37-2.98-1.29-6.18-2.9-8.67-2.75-4.23-5.87-8.37-9.51-11.83-8.76-8.34-18.94-14.25-31.15-15.97-1.29-.18-2.62-.02-4.66-.02Z"/>
  <path class="cls-1" d="M580.87,244.68s-58.23,26.12-38.08,43.61c12.39,10.75,38.08-43.61,38.08-43.61Z"/>
  <path class="cls-1" d="M594.6,207.44s-56.66-29.38-35.54-45.7c12.98-10.03,35.54,45.7,35.54,45.7Z"/>
  <path class="cls-1" d="M603.58,252.75c4.18-7.47,9.45-13.31,17.82-15.99-7.57-7.3-8.69-16.2-8.13-26.19-6.33-1.85-12.35-.53-17.72,3.55-7.18,5.44-10,12.95-8.23,21.64,1.76,8.61,7.21,14.33,16.26,16.99Z"/>
  <path class="cls-1" d="M610.92,206.39c.1-.76.31-1.23.19-1.61-2.46-8.27-2.49-16.72-2.12-25.23.14-3.21-.03-6.52-.67-9.65-1-4.85-3.51-8.86-8.19-11.15-4.76-2.34-9.28-1.62-13.58,1.15-2.56,1.65-3.84,4.09-3.27,7.11.51,2.71.97,5.56,2.18,7.98,5.63,11.3,13.1,21.24,22.66,29.55.78.68,1.73,1.15,2.79,1.85Z"/>
  <path class="cls-1" d="M586.57,254.48c.1.76.31,1.23.19,1.61-2.46,8.27-2.49,16.72-2.12,25.23.14,3.21-.03,6.52-.67,9.65-1,4.85-3.51,8.86-8.19,11.15-4.76,2.34-9.28,1.62-13.58-1.15-2.56-1.65-3.84-4.09-3.27-7.11.51-2.71.97-5.56,2.18-7.98,5.63-11.3,13.1-21.24,22.66-29.55.78-.68,1.73-1.15,2.79-1.85Z"/>
  <path class="cls-1" d="M758,426.02s55.65-21.14,37.13-42.5c-15.41-17.77-37.13,42.5-37.13,42.5Z"/>
  <path class="cls-1" d="M616.22,199.83c4.6-6.05,10.75-7.15,16.98-8.05.76-.11,1.52-.23,2.27-.41,5.41-1.27,6.97-4.77,4.28-9.6-2.7-4.84-8.03-6.9-13.42-5.02-3.95,1.37-6.96,3.95-8.55,7.87-1.87,4.59-2.44,9.36-1.55,15.21Z"/>
  <path class="cls-1" d="M601.46,257.16c-1.69,7.41,1.42,12.83,4.73,18.19.4.65.8,1.31,1.14,2,2.5,4.97.81,8.41-4.61,9.44-5.45,1.04-10.44-1.73-12.47-7.07-1.48-3.91-1.44-7.87.55-11.61,2.32-4.38,5.61-7.88,10.66-10.95Z"/>
</svg>